<?xml version="1.0" standalone="no"?><!DOCTYPE svg PUBLIC "-//W3C//DTD SVG 1.1//EN" "http://www.w3.org/Graphics/SVG/1.1/DTD/svg11.dtd"><svg height="250" node-id="1" sillyvg="true" template-height="250" template-width="250" version="1.1" viewBox="0 0 250 250" width="250" xmlns="http://www.w3.org/2000/svg" xmlns:xlink="http://www.w3.org/1999/xlink"><defs node-id="157"><clipPath id="SVGID_2_" node-id="8"><path d="M 225.60 126.00 C 225.60 181.23 180.83 226.00 125.60 226.00 C 70.37 226.00 25.60 181.23 25.60 126.00 C 25.60 70.77 70.37 26.00 125.60 26.00 C 180.83 26.00 225.60 70.77 225.60 126.00 Z" fill="#000000" fill-rule="nonzero" node-id="160" stroke="none" target-height="200" target-width="200" target-x="25.6" target-y="26"></path></clipPath><clipPath id="SVGID_4_" node-id="142"><path d="M 188.90 142.30 C 189.00 146.70 189.50 151.60 190.40 155.80 C 185.20 155.60 180.00 155.50 174.80 155.30 C 169.10 155.10 163.30 154.90 157.80 153.20 C 151.00 151.10 145.00 146.70 138.20 144.50 C 133.30 142.90 127.30 142.00 122.40 142.50 C 122.70 142.40 122.90 142.20 123.20 142.10 C 129.00 139.40 135.80 140.20 142.00 141.80 C 148.20 143.40 154.30 145.80 160.60 146.40 C 165.10 146.80 169.60 146.30 174.10 145.80 C 176.70 145.50 179.40 145.20 181.90 144.30 C 184.10 143.60 186.60 142.50 188.90 142.30" fill="#000000" fill-rule="nonzero" node-id="164" stroke="none" target-height="16.40001" target-width="67.99999" target-x="122.4" target-y="139.4"></path></clipPath><clipPath id="SVGID_6_" node-id="150"><path d="M 47.10 118.10 C 49.50 116.20 50.00 113.90 51.90 111.90 C 55.40 117.30 60.50 121.80 66.70 123.40 C 68.20 123.80 69.80 124.00 71.30 124.20 C 75.30 124.80 79.30 125.30 83.20 125.90 C 90.50 126.90 98.00 128.00 104.20 132.00 C 110.40 136.00 114.40 145.50 112.30 152.60 C 116.00 144.10 124.30 130.80 133.30 128.60 C 141.90 126.50 150.70 130.30 159.50 130.10 C 166.20 130.00 172.90 128.00 178.00 123.70 C 176.50 113.60 175.60 103.50 175.20 93.30 C 179.80 94.10 185.60 92.80 189.50 90.40 C 186.60 97.10 187.40 104.80 188.10 112.10 C 189.20 122.40 190.30 132.60 191.40 142.90 C 188.60 141.60 184.80 143.50 181.80 144.50 C 179.30 145.40 176.60 145.70 174.00 146.00 C 169.50 146.50 165.00 147.00 160.50 146.60 C 154.10 146.00 148.10 143.60 141.90 142.00 C 135.70 140.40 128.90 139.70 123.10 142.30 C 118.80 144.30 115.10 148.90 112.20 152.70 C 112.40 150.60 111.30 146.80 109.90 145.20 C 108.50 143.60 106.70 142.40 105.00 141.10 C 103.10 139.70 101.30 138.10 99.20 136.90 C 92.60 133.10 84.60 133.40 77.10 132.20 C 66.10 130.50 55.40 125.10 46.70 118.20" fill="#000000" fill-rule="nonzero" node-id="168" stroke="none" target-height="62.299995" target-width="144.7" target-x="46.7" target-y="90.4"></path></clipPath></defs><g node-id="529"><path d="M 225.60 126.00 C 225.60 181.23 180.83 226.00 125.60 226.00 C 70.37 226.00 25.60 181.23 25.60 126.00 C 25.60 70.77 70.37 26.00 125.60 26.00 C 180.83 26.00 225.60 70.77 225.60 126.00 Z" fill="#ffffff" fill-rule="nonzero" group-id="1" node-id="176" stroke="none" target-height="200" target-width="200" target-x="25.6" target-y="26"></path></g><g node-id="530"><g clip-path="url(#SVGID_2_)" group-id="2" id="sillyvg_g_1" node-id="179"><path d="M 35.00 129.80 C 36.40 128.50 37.10 127.40 38.40 126.10 C 38.50 125.50 38.70 125.00 39.00 124.50 C 42.00 117.70 48.60 107.10 50.40 103.20 L 50.40 103.20 C 48.00 106.70 45.70 110.20 43.30 113.70 C 40.10 118.80 37.20 124.20 35.00 129.80 Z" fill="#6a2e9d" fill-rule="nonzero" group-id="2,4,7,10,14" node-id="188" stroke="none" target-height="26.600006" target-width="15.400002" target-x="35" target-y="103.2"></path><path d="M 38.50 126.20 C 37.10 127.50 36.40 128.60 35.10 129.90 C 55.70 142.70 77.10 154.30 99.00 164.60 L 99.10 164.60 C 99.10 164.50 99.20 164.50 99.20 164.40 L 99.10 164.30 C 99.30 162.80 99.50 161.30 99.80 159.80 C 90.00 156.20 80.30 151.10 71.00 146.20 C 67.30 144.20 63.70 142.20 60.10 140.10 C 56.70 138.10 53.30 136.20 50.00 134.00 C 46.10 131.30 42.50 128.40 38.50 126.20 Z" fill="#35569a" fill-rule="nonzero" group-id="2,4,7,10,15" node-id="193" stroke="none" target-height="38.40001" target-width="64.700005" target-x="35.1" target-y="126.2"></path><path d="M 99.70 159.80 C 99.70 159.80 99.70 159.80 99.70 159.80 C 101.40 157.20 103.50 154.70 106.40 153.30 C 108.20 152.40 110.40 152.30 112.40 152.60 L 112.40 152.50 C 112.60 150.40 111.50 146.60 110.10 145.00 C 108.70 143.40 106.90 142.20 105.20 140.90 C 103.30 139.50 101.50 137.90 99.40 136.70 C 92.80 132.90 84.80 133.20 77.30 132.00 C 66.30 130.30 55.70 124.90 47.00 118.00 C 47.00 118.00 47.00 118.00 47.00 118.00 C 45.30 119.00 43.60 120.10 42.10 121.40 C 41.10 122.40 39.90 123.30 39.20 124.50 C 39.00 125.10 38.70 125.60 38.60 126.10 C 42.70 128.30 46.30 131.30 50.10 133.90 C 53.40 136.10 56.80 138.10 60.20 140.00 C 63.80 142.10 67.40 144.10 71.10 146.10 C 80.20 151.10 89.80 156.20 99.70 159.80 Z" fill="#b8cdfc" fill-rule="nonzero" group-id="2,4,7,10,16" node-id="198" stroke="none" target-height="41.800003" target-width="74" target-x="38.6" target-y="118"></path><path d="M 63.80 83.80 C 62.90 84.10 62.00 84.40 61.30 84.80 C 58.90 90.90 55.20 96.40 51.50 101.80 C 51.20 102.30 50.80 102.80 50.50 103.30 L 50.50 103.30 C 48.70 107.10 42.00 117.70 39.10 124.60 C 39.80 123.40 41.00 122.50 42.00 121.50 C 43.50 120.10 45.20 119.10 46.90 118.10 C 46.90 118.10 46.90 118.10 46.90 118.10 L 47.00 118.00 C 49.80 116.10 49.80 113.90 51.70 111.90 L 51.70 111.90 C 51.40 111.40 51.10 110.90 50.80 110.50 C 54.90 106.00 57.00 101.40 59.60 95.90 C 61.60 91.50 63.80 87.20 66.10 83.00 L 66.10 83.00 C 65.50 83.30 64.70 83.50 63.80 83.80 Z" fill="#7259d1" fill-rule="nonzero" group-id="2,4,7,10,17" node-id="203" stroke="none" target-height="41.6" target-width="27" target-x="39.1" target-y="83"></path><path d="M 47.00 118.00 L 47.00 118.00 C 55.60 125.00 66.30 130.30 77.20 132.10 C 84.70 133.30 92.70 133.00 99.30 136.80 C 101.40 138.00 103.20 139.50 105.10 141.00 C 106.80 142.30 108.60 143.50 110.00 145.10 C 111.40 146.70 112.50 150.50 112.30 152.60 C 114.40 145.60 110.40 136.00 104.20 132.00 C 98.00 128.00 90.50 126.90 83.20 125.90 C 79.20 125.30 75.20 124.80 71.30 124.20 C 69.80 124.00 68.20 123.80 66.70 123.40 C 60.70 121.90 55.30 117.10 51.80 111.90 L 51.80 111.90 C 49.90 113.90 49.80 116.20 47.00 118.00 Z" fill="#c4c4fa" fill-rule="nonzero" group-id="2,4,7,10,18" node-id="208" stroke="none" target-height="40.700005" target-width="67.4" target-x="47" target-y="111.9"></path><path d="M 50.80 110.50 C 51.10 111.00 51.40 111.50 51.70 111.90 C 55.30 117.10 60.70 121.80 66.60 123.40 C 68.10 123.80 69.70 124.00 71.20 124.20 C 75.20 124.80 79.20 125.30 83.10 125.90 C 90.40 126.90 97.90 128.00 104.10 132.00 C 110.30 136.00 114.30 145.50 112.20 152.60 C 119.40 135.90 122.40 112.50 123.90 94.40 C 120.80 88.80 115.00 85.30 108.90 83.50 C 102.80 81.80 96.40 81.40 90.20 80.10 C 84.00 78.80 77.10 75.70 73.00 70.80 C 70.50 74.80 68.20 78.80 66.00 83.00 C 63.70 87.20 61.50 91.60 59.50 95.90 C 57.00 101.40 54.90 106.00 50.80 110.50 Z" fill="#ffffff" fill-rule="nonzero" group-id="2,4,7,10,19" node-id="213" stroke="none" target-height="81.8" target-width="73.100006" target-x="50.8" target-y="70.8"></path><path d="M 99.70 159.80 C 99.50 161.30 99.30 162.80 99.00 164.30 L 99.10 164.40 C 99.80 163.50 100.60 162.40 101.30 161.50 C 103.00 159.40 105.50 158.00 108.20 157.90 C 110.70 157.80 113.20 158.60 115.60 159.50 C 116.40 159.80 117.20 160.10 117.90 160.50 C 119.90 161.90 120.60 165.10 122.00 167.10 L 122.00 167.10 C 122.20 166.00 122.70 162.90 122.90 161.60 C 122.90 161.50 122.90 161.50 122.90 161.40 C 122.60 159.60 121.30 158.10 120.00 156.90 C 118.20 155.20 116.00 153.70 113.60 153.00 C 113.20 152.90 112.70 152.70 112.20 152.70 C 110.20 152.30 108.10 152.50 106.20 153.40 C 103.50 154.70 101.40 157.20 99.70 159.80 C 99.70 159.80 99.70 159.80 99.70 159.80 Z" fill="#4fa7f2" fill-rule="nonzero" group-id="2,4,7,10,20" node-id="218" stroke="none" target-height="14.800003" target-width="23.900002" target-x="99" target-y="152.3"></path><path d="M 171.00 162.00 C 161.70 161.30 152.50 159.60 143.60 156.90 C 139.80 155.80 136.10 154.40 132.30 153.80 C 128.40 153.20 123.60 152.60 120.00 154.20 C 127.60 149.80 137.10 150.60 145.40 153.10 C 153.80 155.60 161.60 159.70 170.10 161.80 C 170.50 161.90 170.70 161.90 171.00 162.00 Z M 112.40 152.50 L 112.40 152.50 C 112.80 152.70 113.30 152.80 113.80 152.90 C 116.20 153.60 118.30 155.10 120.20 156.80 C 121.50 158.00 122.80 159.50 123.10 161.30 C 123.10 161.40 123.10 161.40 123.10 161.50 L 123.20 161.50 C 129.80 163.90 135.60 165.10 142.70 165.80 C 161.60 167.70 180.80 170.80 199.50 174.20 C 195.90 169.90 196.10 168.10 193.40 163.20 C 192.90 162.30 190.80 160.10 190.10 159.30 C 188.60 159.40 187.00 159.50 185.50 159.50 C 178.00 159.40 170.70 157.30 163.70 154.50 L 163.70 154.40 C 161.70 154.10 159.70 153.70 157.70 153.10 C 150.90 151.00 144.90 146.60 138.10 144.40 C 133.20 142.80 127.30 142.00 122.40 142.50 L 122.30 142.40 C 118.40 144.70 115.00 149.00 112.40 152.50 Z" fill="#b8cdfc" fill-rule="nonzero" group-id="2,4,7,10,21" node-id="223" stroke="none" target-height="32.199997" target-width="87.1" target-x="112.4" target-y="142"></path><path d="M 190.30 130.80 C 189.80 125.80 189.20 120.90 188.70 115.90 C 188.60 114.60 188.40 113.30 188.30 112.00 C 187.50 104.70 186.80 97.10 189.70 90.30 C 185.80 92.70 179.90 94.00 175.40 93.20 L 175.40 93.20 C 175.70 103.40 176.70 113.50 178.20 123.60 C 173.10 127.90 166.30 129.90 159.70 130.00 C 150.90 130.20 142.00 126.40 133.50 128.50 C 124.50 130.70 116.20 144.00 112.50 152.50 C 115.20 149.00 118.60 144.70 122.60 142.50 C 122.90 142.40 123.10 142.20 123.40 142.10 C 129.20 139.40 136.00 140.20 142.20 141.80 C 148.40 143.40 154.50 145.80 160.80 146.40 C 165.30 146.80 169.80 146.30 174.30 145.80 C 176.90 145.50 179.60 145.20 182.10 144.30 C 184.20 143.60 186.70 142.40 189.00 142.20 C 190.00 142.10 190.90 142.20 191.70 142.60 C 191.20 138.70 190.80 134.80 190.30 130.80 Z" fill="#c4c4fa" fill-rule="nonzero" group-id="2,4,7,10,22" node-id="228" stroke="none" target-height="62.199997" target-width="79.2" target-x="112.5" target-y="90.3"></path><path d="M 124.10 94.40 C 122.50 112.50 119.60 135.90 112.40 152.60 C 116.10 144.10 124.40 130.80 133.40 128.60 C 142.00 126.50 150.80 130.30 159.60 130.10 C 166.30 130.00 173.00 128.00 178.10 123.70 C 176.60 113.60 175.60 103.50 175.30 93.30 C 175.10 86.90 175.10 80.50 175.40 74.10 C 168.00 77.80 159.50 81.20 151.30 82.10 C 148.30 82.40 145.30 82.50 142.30 83.20 C 137.80 84.30 133.80 86.80 129.80 89.20 C 127.60 90.60 125.30 92.10 124.10 94.40 Z" fill="#ffffff" fill-rule="nonzero" group-id="2,4,7,10,23" node-id="233" stroke="none" target-height="78.50001" target-width="65.700005" target-x="112.4" target-y="74.1"></path><path d="M 122.40 142.60 L 122.40 142.60 C 127.40 142.20 133.30 143.00 138.20 144.60 C 145.00 146.80 150.90 151.10 157.80 153.30 C 159.80 153.90 161.70 154.30 163.80 154.60 C 167.40 155.10 171.10 155.30 174.80 155.40 C 179.70 155.60 184.60 155.70 189.50 155.90 C 189.80 155.90 190.10 155.90 190.50 155.90 C 189.70 151.60 189.20 146.70 189.00 142.40 L 189.00 142.40 C 186.70 142.60 184.20 143.80 182.10 144.50 C 179.60 145.40 176.90 145.70 174.30 146.00 C 169.80 146.50 165.30 147.00 160.80 146.60 C 154.40 146.00 148.40 143.60 142.20 142.00 C 136.00 140.40 129.20 139.70 123.40 142.30 C 123.00 142.30 122.70 142.40 122.40 142.60 Z" fill="#b9a9f5" fill-rule="nonzero" group-id="2,4,7,10,24" node-id="238" stroke="none" target-height="16.199997" target-width="68.1" target-x="122.4" target-y="139.7"></path><path d="M 122.00 167.10 C 122.00 167.10 122.10 167.10 122.00 167.10 C 142.30 169.40 163.10 172.40 183.00 176.40 C 188.00 177.40 193.70 178.40 198.80 178.20 L 199.30 174.30 C 180.60 170.90 161.40 167.80 142.50 165.90 C 135.40 165.20 129.60 163.90 123.00 161.60 L 122.90 161.60 C 122.80 162.90 122.30 165.90 122.00 167.10 L 122.00 167.10 Z" fill="#35569a" fill-rule="nonzero" group-id="2,4,7,10,25" node-id="243" stroke="none" target-height="16.799988" target-width="77.3" target-x="122" target-y="161.6"></path><path d="M 120.00 154.20 C 123.60 152.60 128.40 153.10 132.30 153.80 C 136.20 154.40 139.90 155.80 143.60 156.90 C 152.50 159.60 161.70 161.30 171.00 162.00 C 170.70 161.90 170.40 161.90 170.10 161.80 C 161.60 159.70 153.80 155.60 145.40 153.10 C 137.10 150.60 127.60 149.80 120.00 154.20 Z" fill="#3c2f53" fill-rule="nonzero" group-id="2,4,7,10,26" node-id="248" stroke="none" target-height="12.199997" target-width="51" target-x="120" target-y="149.8"></path><path d="M 163.70 154.50 L 163.70 154.50 C 170.60 157.30 178.00 159.50 185.40 159.60 C 186.90 159.60 188.50 159.60 190.00 159.40 C 189.80 158.30 189.60 157.10 189.40 156.00 L 189.40 155.70 C 184.50 155.50 179.60 155.40 174.70 155.20 C 171.10 155.20 167.40 155.10 163.70 154.50 Z" fill="#92b8f3" fill-rule="nonzero" group-id="2,4,7,10,27" node-id="253" stroke="none" target-height="5.100006" target-width="26.300003" target-x="163.7" target-y="154.5"></path><path d="M 188.70 115.90 L 188.70 115.90 C 189.20 120.90 189.80 125.80 190.30 130.80 C 190.40 128.10 191.00 124.80 192.00 122.30 C 192.30 121.60 192.60 121.00 192.90 120.30 C 193.50 119.00 194.00 117.60 193.90 116.20 C 192.50 116.00 190.20 116.00 188.70 115.90 Z" fill="#b9a9f5" fill-rule="nonzero" group-id="2,4,7,10,28" node-id="258" stroke="none" target-height="14.900002" target-width="5.300003" target-x="188.7" target-y="115.9"></path><path d="M 192.10 122.30 C 191.10 124.80 190.40 128.10 190.40 130.80 C 190.80 134.80 191.30 138.70 191.70 142.70 C 190.90 142.30 190.00 142.20 189.00 142.30 L 189.00 142.30 C 189.10 146.70 189.60 151.60 190.50 155.80 C 190.20 155.80 189.90 155.80 189.50 155.80 L 189.50 156.10 C 189.70 157.20 189.90 158.40 190.10 159.50 C 190.80 160.30 192.90 162.50 193.40 163.40 C 196.00 168.30 195.90 170.10 199.50 174.40 C 199.20 166.20 198.70 157.30 197.50 149.20 C 196.80 144.30 195.40 128.60 195.20 123.60 L 193.10 120.40 L 193.10 120.40 C 192.70 121.00 192.30 121.60 192.10 122.30 Z" fill="#735bcb" fill-rule="nonzero" group-id="2,4,7,10,29" node-id="263" stroke="none" target-height="53.999992" target-width="10.5" target-x="189" target-y="120.4"></path><path d="M 124.10 94.70 C 124.10 94.70 124.00 94.70 124.00 94.70 C 123.80 94.60 123.80 94.40 123.90 94.30 C 125.20 91.90 127.80 90.30 129.80 89.00 C 133.70 86.50 137.70 84.00 142.40 82.90 C 144.40 82.40 146.50 82.20 148.60 82.10 C 149.50 82.00 150.50 81.90 151.40 81.80 C 158.30 81.00 166.10 78.40 175.40 73.80 C 175.60 73.70 175.70 73.80 175.80 73.90 C 175.90 74.10 175.80 74.20 175.70 74.30 C 166.40 78.90 158.50 81.60 151.50 82.40 C 150.60 82.50 149.60 82.60 148.70 82.70 C 146.70 82.90 144.60 83.00 142.60 83.50 C 138.10 84.60 134.10 87.10 130.20 89.50 C 128.10 90.80 125.80 92.30 124.50 94.60 C 124.30 94.60 124.20 94.70 124.10 94.70 Z" fill="#000000" fill-rule="nonzero" group-id="2,4,7,11,30" node-id="271" stroke="none" target-height="21" target-width="52.09999" target-x="123.8" target-y="73.7"></path><path d="M 178.10 123.90 C 177.90 123.90 177.80 123.80 177.80 123.60 C 176.30 113.50 175.30 103.20 175.00 93.20 C 174.80 86.80 174.80 80.30 175.10 74.00 C 175.10 73.80 175.20 73.70 175.40 73.70 C 175.60 73.70 175.70 73.90 175.70 74.00 C 175.40 80.30 175.40 86.80 175.60 93.20 C 175.90 103.20 176.90 113.40 178.40 123.50 C 178.40 123.70 178.30 123.90 178.10 123.90 C 178.10 123.90 178.10 123.90 178.10 123.90 Z" fill="#000000" fill-rule="nonzero" group-id="2,4,7,11,31" node-id="276" stroke="none" target-height="50.200005" target-width="3.5999908" target-x="174.8" target-y="73.7"></path><path d="M 112.40 152.90 C 112.40 152.90 112.30 152.90 112.30 152.90 C 112.10 152.80 112.10 152.60 112.10 152.50 C 114.30 147.50 117.40 142.20 120.60 138.10 C 124.80 132.70 129.20 129.40 133.30 128.40 C 138.50 127.10 143.80 128.00 149.00 128.80 C 152.50 129.40 156.10 129.90 159.60 129.90 C 166.80 129.80 173.30 127.50 177.90 123.50 C 178.00 123.40 178.20 123.40 178.30 123.50 C 178.40 123.60 178.40 123.80 178.30 123.90 C 173.50 127.90 166.90 130.30 159.60 130.40 C 156.00 130.50 152.40 129.90 148.90 129.30 C 143.80 128.50 138.50 127.60 133.50 128.90 C 124.20 131.20 115.80 145.50 112.70 152.70 C 112.60 152.80 112.50 152.90 112.40 152.90 Z" fill="#000000" fill-rule="nonzero" group-id="2,4,7,11,32" node-id="281" stroke="none" target-height="29.499992" target-width="66.299995" target-x="112.1" target-y="123.4"></path><path d="M 112.40 152.90 C 112.40 152.90 112.30 152.90 112.30 152.90 C 112.10 152.80 112.10 152.60 112.10 152.50 C 117.70 139.50 121.50 120.50 123.80 94.40 C 123.80 94.20 124.00 94.10 124.10 94.10 C 124.30 94.10 124.40 94.30 124.40 94.40 C 122.10 120.50 118.30 139.60 112.60 152.60 C 112.60 152.80 112.50 152.90 112.40 152.90 Z" fill="#000000" fill-rule="nonzero" group-id="2,4,7,11,33" node-id="286" stroke="none" target-height="58.799995" target-width="12.300003" target-x="112.1" target-y="94.1"></path><path d="M 124.10 94.70 C 124.00 94.70 123.90 94.60 123.80 94.50 C 121.00 89.50 115.80 85.70 109.00 83.80 C 105.40 82.80 101.70 82.20 98.00 81.70 C 95.40 81.30 92.80 80.90 90.20 80.40 C 83.00 78.80 76.50 75.30 72.80 71.00 C 72.70 70.90 72.70 70.70 72.80 70.60 C 72.90 70.50 73.10 70.50 73.20 70.60 C 76.70 74.80 83.10 78.20 90.30 79.80 C 92.90 80.30 95.50 80.70 98.00 81.10 C 101.60 81.60 105.40 82.20 109.00 83.20 C 115.90 85.20 121.40 89.10 124.20 94.20 C 124.30 94.40 124.20 94.50 124.10 94.60 C 124.20 94.70 124.10 94.70 124.10 94.70 Z" fill="#000000" fill-rule="nonzero" group-id="2,4,7,11,34" node-id="291" stroke="none" target-height="24.199997" target-width="51.600006" target-x="72.7" target-y="70.5"></path><path d="M 50.80 110.80 C 50.70 110.80 50.60 110.80 50.60 110.70 C 50.50 110.60 50.50 110.40 50.60 110.30 C 54.60 105.90 56.70 101.40 59.20 96.10 L 59.40 95.80 C 61.40 91.40 63.60 87.10 65.90 82.90 C 68.10 78.80 70.50 74.70 72.90 70.70 C 73.00 70.60 73.20 70.50 73.30 70.60 C 73.40 70.70 73.50 70.90 73.40 71.00 C 71.00 75.00 68.60 79.00 66.40 83.10 C 64.10 87.30 61.90 91.70 59.90 96.00 L 59.70 96.30 C 57.20 101.60 55.10 106.20 51.00 110.60 C 51.00 110.80 50.90 110.80 50.80 110.80 Z" fill="#000000" fill-rule="nonzero" group-id="2,4,7,11,35" node-id="296" stroke="none" target-height="40.300003" target-width="23" target-x="50.5" target-y="70.5"></path><path d="M 112.40 152.90 C 112.30 152.90 112.30 152.90 112.40 152.90 C 112.10 152.80 112.10 152.70 112.10 152.50 C 114.10 145.70 110.40 136.30 104.10 132.30 C 97.80 128.30 90.10 127.20 83.20 126.30 L 71.30 124.60 C 69.80 124.40 68.20 124.20 66.60 123.80 C 61.20 122.40 55.50 118.10 51.50 112.20 C 51.20 111.70 50.90 111.20 50.60 110.70 C 50.50 110.60 50.60 110.40 50.70 110.30 C 50.80 110.20 51.00 110.30 51.10 110.40 C 51.40 110.90 51.70 111.40 52.00 111.80 C 55.90 117.50 61.50 121.80 66.70 123.10 C 68.20 123.50 69.80 123.70 71.30 123.90 L 83.20 125.60 C 90.10 126.60 98.00 127.70 104.40 131.70 C 110.90 135.80 114.70 145.60 112.60 152.60 C 112.60 152.80 112.50 152.90 112.40 152.90 Z" fill="#000000" fill-rule="nonzero" group-id="2,4,7,11,36" node-id="301" stroke="none" target-height="42.699997" target-width="64.2" target-x="50.5" target-y="110.2"></path><path d="M 178.10 93.80 C 177.10 93.80 176.10 93.70 175.20 93.60 C 175.00 93.60 174.90 93.40 174.90 93.20 C 174.90 93.00 175.10 92.90 175.30 92.90 C 179.60 93.60 185.40 92.40 189.40 90.00 C 189.50 89.90 189.70 90.00 189.80 90.10 C 189.90 90.20 189.80 90.40 189.70 90.50 C 186.50 92.60 182.10 93.80 178.10 93.80 Z" fill="#000000" fill-rule="nonzero" group-id="2,4,7,11,37" node-id="306" stroke="none" target-height="3.9000015" target-width="15" target-x="174.9" target-y="89.9"></path><path d="M 191.60 143.00 C 191.40 143.00 191.30 142.90 191.30 142.70 C 190.90 138.70 190.40 134.80 190.00 130.80 L 189.40 125.10 C 189.10 122.00 188.70 118.90 188.40 115.90 L 188.00 112.00 C 187.30 105.00 186.40 97.20 189.40 90.20 C 189.50 90.00 189.60 90.00 189.80 90.00 C 190.00 90.10 190.00 90.20 190.00 90.40 C 187.10 97.20 187.90 105.00 188.70 111.90 L 189.10 115.80 C 189.40 118.90 189.80 122.00 190.10 125.00 L 190.70 130.70 C 191.10 134.70 191.60 138.60 192.00 142.60 C 191.90 142.80 191.80 143.00 191.60 143.00 C 191.60 143.00 191.60 143.00 191.60 143.00 Z" fill="#000000" fill-rule="nonzero" group-id="2,4,7,11,38" node-id="311" stroke="none" target-height="53" target-width="5.600006" target-x="186.4" target-y="90"></path><path d="M 112.40 152.90 C 112.30 152.90 112.30 152.90 112.20 152.80 C 112.10 152.70 112.00 152.50 112.10 152.40 C 114.90 148.70 118.30 144.50 122.30 142.40 C 122.60 142.20 122.90 142.10 123.10 142.00 C 128.00 139.70 134.30 139.60 142.10 141.60 C 144.00 142.10 146.00 142.70 147.80 143.20 C 152.00 144.40 156.30 145.70 160.60 146.10 C 165.10 146.50 169.70 146.00 174.10 145.50 C 176.70 145.20 179.30 144.90 181.80 144.10 C 182.30 143.90 182.90 143.70 183.40 143.50 C 185.10 142.90 187.00 142.20 188.70 142.00 C 189.80 141.90 190.70 142.10 191.60 142.40 C 191.80 142.50 191.80 142.70 191.70 142.80 C 191.60 143.00 191.40 143.00 191.30 142.90 C 190.60 142.60 189.70 142.40 188.80 142.50 C 187.10 142.60 185.30 143.30 183.70 143.90 C 183.10 144.10 182.60 144.30 182.00 144.50 C 179.50 145.40 176.80 145.70 174.10 146.00 C 169.60 146.50 165.00 147.00 160.50 146.60 C 156.10 146.20 151.70 144.90 147.50 143.60 C 145.60 143.00 143.70 142.50 141.80 142.00 C 134.10 140.00 128.00 140.10 123.20 142.30 C 122.90 142.40 122.70 142.60 122.40 142.70 C 118.60 144.80 115.20 148.90 112.40 152.60 C 112.50 152.80 112.40 152.90 112.40 152.90 Z" fill="#000000" fill-rule="nonzero" group-id="2,4,7,11,39" node-id="316" stroke="none" target-height="13.299988" target-width="79.8" target-x="112" target-y="139.6"></path><path d="M 112.40 152.90 C 112.30 152.90 112.30 152.90 112.40 152.90 C 112.20 152.90 112.10 152.70 112.10 152.60 C 112.30 150.50 111.20 146.80 109.90 145.30 C 108.80 144.00 107.30 143.00 105.90 141.90 C 105.60 141.70 105.30 141.50 105.00 141.20 C 104.50 140.80 104.00 140.50 103.60 140.10 C 102.20 139.00 100.80 137.90 99.30 137.10 C 94.50 134.40 88.90 133.80 83.40 133.20 C 81.40 133.00 79.40 132.80 77.40 132.50 C 67.10 130.90 56.30 125.90 46.90 118.50 L 46.80 118.50 C 46.70 118.40 46.60 118.20 46.80 118.10 C 46.90 118.00 47.10 117.90 47.20 118.10 L 47.20 118.10 C 56.40 125.50 67.10 130.40 77.40 132.00 C 79.40 132.30 81.40 132.50 83.40 132.70 C 89.00 133.30 94.70 133.90 99.60 136.70 C 101.20 137.60 102.60 138.70 104.00 139.80 C 104.50 140.20 105.00 140.50 105.40 140.90 C 105.70 141.10 106.00 141.30 106.30 141.60 C 107.70 142.60 109.20 143.70 110.40 145.10 C 111.80 146.70 113.00 150.60 112.80 152.90 C 112.60 152.70 112.50 152.90 112.40 152.90 Z" fill="#000000" fill-rule="nonzero" group-id="2,4,7,11,40" node-id="321" stroke="none" target-height="34.999992" target-width="66.4" target-x="46.6" target-y="117.9"></path><path d="M 38.50 126.50 C 38.50 126.50 38.40 126.50 38.50 126.50 C 38.30 126.50 38.20 126.30 38.20 126.10 C 38.30 125.50 38.50 125.00 38.90 124.40 C 39.50 123.40 40.40 122.60 41.30 121.80 C 41.50 121.60 41.60 121.50 41.80 121.30 C 43.30 119.90 45.10 118.80 46.70 117.80 C 46.80 117.70 47.00 117.80 47.10 117.90 C 47.20 118.00 47.10 118.20 47.00 118.30 C 45.30 119.30 43.60 120.30 42.20 121.70 C 42.00 121.90 41.90 122.00 41.70 122.20 C 40.80 123.00 40.00 123.80 39.40 124.70 C 39.10 125.20 38.90 125.70 38.80 126.20 C 38.80 126.40 38.60 126.50 38.50 126.50 Z" fill="#000000" fill-rule="nonzero" group-id="2,4,7,11,41" node-id="326" stroke="none" target-height="8.800003" target-width="9" target-x="38.2" target-y="117.7"></path><path d="M 123.00 161.70 C 122.90 161.70 122.70 161.60 122.70 161.40 C 122.30 159.50 120.90 158.00 119.90 157.10 C 117.90 155.20 115.80 153.90 113.60 153.30 C 113.20 153.20 112.70 153.10 112.30 153.00 C 110.20 152.60 108.20 152.90 106.50 153.70 C 104.10 154.80 102.10 156.80 100.00 160.10 C 99.90 160.20 99.70 160.30 99.60 160.20 C 99.50 160.10 99.40 159.90 99.50 159.80 C 101.60 156.50 103.80 154.40 106.30 153.20 C 108.10 152.30 110.30 152.10 112.50 152.50 C 113.00 152.60 113.40 152.70 113.90 152.80 C 116.10 153.50 118.30 154.80 120.40 156.80 C 121.50 157.80 123.00 159.40 123.40 161.50 C 123.40 161.50 123.30 161.70 123.00 161.70 C 123.10 161.70 123.00 161.70 123.00 161.70 Z" fill="#000000" fill-rule="nonzero" group-id="2,4,7,11,42" node-id="331" stroke="none" target-height="9.599991" target-width="24" target-x="99.4" target-y="152.1"></path><path d="M 99.70 160.10 C 99.70 160.10 99.60 160.10 99.70 160.10 C 99.60 160.10 99.60 160.10 99.60 160.10 C 89.90 156.60 80.50 151.60 70.80 146.50 C 67.10 144.50 63.50 142.40 59.90 140.40 L 59.90 140.40 C 56.50 138.50 53.10 136.50 49.80 134.30 C 48.60 133.50 47.30 132.60 46.10 131.70 C 43.60 129.90 41.00 128.00 38.30 126.60 C 38.10 126.50 38.10 126.30 38.20 126.20 C 38.30 126.10 38.50 126.00 38.60 126.10 C 41.40 127.60 44.00 129.50 46.50 131.30 C 47.70 132.20 48.90 133.00 50.10 133.90 C 53.30 136.10 56.80 138.10 60.10 140.00 L 60.10 140.00 C 63.60 142.00 67.30 144.10 71.00 146.10 C 80.60 151.30 90.10 156.20 99.70 159.70 C 99.70 159.70 99.70 159.70 99.70 159.70 C 99.90 159.80 99.90 159.90 99.90 160.10 C 100.00 160.00 99.80 160.10 99.70 160.10 Z M 99.80 159.50 C 99.80 159.50 99.80 159.50 99.80 159.50 C 99.80 159.50 99.80 159.50 99.80 159.50 Z" fill="#000000" fill-rule="nonzero" group-id="2,4,7,11,43" node-id="336" stroke="none" target-height="34.100006" target-width="61.9" target-x="38.1" target-y="126"></path><path d="M 199.40 174.60 C 199.40 174.60 199.30 174.60 199.40 174.60 C 177.00 170.50 159.00 167.90 142.60 166.20 C 135.20 165.40 129.50 164.20 123.00 161.90 C 122.80 161.80 122.80 161.70 122.80 161.50 C 122.90 161.30 123.00 161.30 123.20 161.30 C 129.70 163.60 135.30 164.80 142.70 165.60 C 159.10 167.30 177.10 169.90 199.50 174.00 C 199.70 174.00 199.80 174.20 199.80 174.40 C 199.70 174.50 199.50 174.60 199.40 174.60 Z" fill="#000000" fill-rule="nonzero" group-id="2,4,7,11,44" node-id="341" stroke="none" target-height="13.300003" target-width="77" target-x="122.8" target-y="161.3"></path><path d="M 190.30 131.20 C 190.30 131.20 190.30 131.20 190.30 131.20 C 190.10 131.20 190.00 131.10 190.00 130.90 L 190.00 130.80 C 190.10 128.00 190.70 124.70 191.80 122.20 C 192.00 121.80 192.20 121.30 192.30 120.90 C 192.40 120.60 192.50 120.40 192.60 120.10 C 193.20 118.60 193.60 117.40 193.60 116.10 C 193.60 115.90 193.70 115.80 193.90 115.80 C 194.10 115.80 194.20 115.90 194.20 116.10 C 194.20 117.50 193.80 118.80 193.10 120.40 C 193.00 120.70 192.90 120.90 192.80 121.20 C 192.60 121.60 192.40 122.00 192.30 122.50 C 191.30 125.00 190.70 128.20 190.60 130.90 L 190.60 131.00 C 190.60 131.10 190.50 131.20 190.30 131.20 Z" fill="#000000" fill-rule="nonzero" group-id="2,4,7,11,45" node-id="346" stroke="none" target-height="15.399994" target-width="4.199997" target-x="190" target-y="115.8"></path><path d="M 194.00 116.50 C 194.00 116.50 194.00 116.50 194.00 116.50 C 193.30 116.40 192.30 116.40 191.40 116.40 C 190.50 116.40 189.50 116.30 188.80 116.30 C 188.60 116.30 188.50 116.10 188.50 116.00 C 188.50 115.80 188.70 115.70 188.80 115.70 C 189.50 115.80 190.50 115.80 191.40 115.80 C 192.30 115.80 193.30 115.90 194.00 115.90 C 194.20 115.90 194.30 116.10 194.30 116.20 C 194.30 116.30 194.10 116.50 194.00 116.50 Z" fill="#000000" fill-rule="nonzero" group-id="2,4,7,11,46" node-id="351" stroke="none" target-height="0.80000305" target-width="5.800003" target-x="188.5" target-y="115.7"></path><path d="M 190.40 156.20 C 190.40 156.20 190.40 156.20 190.40 156.20 L 174.80 155.70 C 171.20 155.60 167.40 155.50 163.70 154.90 C 161.50 154.60 159.50 154.10 157.70 153.60 C 154.20 152.50 150.90 150.80 147.70 149.20 C 144.60 147.60 141.40 146.00 138.10 144.90 C 133.00 143.30 127.20 142.60 122.50 143.00 C 122.30 143.00 122.20 142.90 122.20 142.70 C 122.20 142.50 122.30 142.40 122.50 142.40 C 127.30 141.90 133.20 142.60 138.40 144.30 C 141.80 145.40 145.00 147.00 148.10 148.60 C 151.30 150.20 154.50 151.90 158.00 152.90 C 159.80 153.50 161.80 153.90 163.90 154.20 C 167.60 154.70 171.30 154.90 174.90 155.00 L 190.10 155.50 C 189.30 151.40 188.80 146.80 188.70 142.30 C 188.70 142.10 188.80 142.00 189.00 142.00 C 189.20 142.00 189.30 142.10 189.30 142.30 C 189.40 146.90 189.90 151.70 190.80 155.80 C 190.80 155.90 190.80 156.00 190.70 156.10 C 190.60 156.10 190.50 156.20 190.40 156.20 Z" fill="#000000" fill-rule="nonzero" group-id="2,4,7,11,47" node-id="356" stroke="none" target-height="14.300003" target-width="68.600006" target-x="122.2" target-y="141.9"></path><path d="M 199.40 174.60 C 199.20 174.60 199.10 174.50 199.10 174.30 C 198.80 164.40 198.10 156.20 197.10 149.10 C 196.40 144.10 195.00 128.50 194.80 123.60 L 192.70 120.50 C 192.60 120.40 192.60 120.20 192.80 120.10 C 192.90 120.00 193.10 120.00 193.20 120.20 L 195.30 123.40 C 195.30 123.40 195.40 123.50 195.40 123.60 C 195.50 128.40 196.90 144.10 197.70 149.10 C 198.80 156.20 199.40 164.50 199.70 174.40 C 199.70 174.40 199.60 174.60 199.40 174.60 C 199.40 174.60 199.40 174.60 199.40 174.60 Z" fill="#000000" fill-rule="nonzero" group-id="2,4,7,11,48" node-id="361" stroke="none" target-height="54.600006" target-width="7.099991" target-x="192.6" target-y="120"></path><path d="M 197.90 178.50 C 193.10 178.50 187.90 177.60 183.00 176.60 C 164.50 172.90 144.00 169.80 122.00 167.40 C 121.80 167.40 121.70 167.20 121.70 167.10 C 121.70 166.90 121.90 166.80 122.00 166.80 C 144.00 169.30 164.50 172.40 183.00 176.00 C 188.10 177.00 193.50 177.90 198.50 177.80 L 199.00 174.20 C 199.00 174.00 199.20 173.90 199.40 173.90 C 199.60 173.90 199.70 174.10 199.70 174.30 L 199.20 178.20 C 199.20 178.40 199.10 178.50 198.90 178.50 C 198.50 178.50 198.20 178.50 197.90 178.50 Z" fill="#000000" fill-rule="nonzero" group-id="2,4,7,11,49" node-id="366" stroke="none" target-height="11.699997" target-width="78" target-x="121.7" target-y="166.8"></path><path d="M 122.10 167.30 C 122.10 167.30 122.10 167.30 122.10 167.30 C 121.90 167.30 121.80 167.10 121.80 166.90 C 121.90 166.30 122.10 165.10 122.30 164.00 C 122.50 163.00 122.60 162.00 122.70 161.40 L 122.70 161.20 C 122.70 161.00 122.90 160.90 123.10 160.90 C 123.30 160.90 123.40 161.10 123.40 161.30 L 123.40 161.50 C 123.30 162.10 123.10 163.10 123.00 164.10 C 122.80 165.20 122.60 166.30 122.50 167.00 C 122.40 167.20 122.20 167.30 122.10 167.30 Z" fill="#000000" fill-rule="nonzero" group-id="2,4,7,11,50" node-id="371" stroke="none" target-height="6.400009" target-width="1.5999985" target-x="121.8" target-y="160.9"></path><path d="M 99.00 164.60 C 99.00 164.60 99.00 164.60 99.00 164.60 C 98.80 164.60 98.70 164.40 98.70 164.20 L 99.40 159.70 L 99.70 159.70 L 100.00 159.70 C 100.00 159.70 100.00 159.70 100.00 159.70 L 99.30 164.20 C 99.30 164.50 99.20 164.60 99.00 164.60 Z" fill="#000000" fill-rule="nonzero" group-id="2,4,7,11,51" node-id="376" stroke="none" target-height="4.900009" target-width="1.300003" target-x="98.7" target-y="159.7"></path><path d="M 98.90 164.90 C 98.90 164.90 98.80 164.90 98.80 164.90 C 76.90 154.60 55.40 142.90 34.90 130.20 C 34.80 130.10 34.70 129.90 34.80 129.80 C 34.90 129.70 35.10 129.60 35.20 129.70 C 55.70 142.40 77.20 154.10 99.10 164.40 C 99.30 164.50 99.30 164.70 99.20 164.80 C 99.20 164.80 99.10 164.90 98.90 164.90 Z" fill="#000000" fill-rule="nonzero" group-id="2,4,7,11,52" node-id="381" stroke="none" target-height="35.299988" target-width="64.600006" target-x="34.7" target-y="129.6"></path><path d="M 35.00 130.20 C 34.90 130.20 34.80 130.20 34.80 130.10 C 34.70 130.00 34.70 129.80 34.80 129.70 C 35.50 129.10 36.00 128.50 36.50 127.90 C 37.00 127.30 37.50 126.70 38.20 126.00 C 38.30 125.90 38.50 125.90 38.60 126.00 C 38.70 126.10 38.70 126.30 38.60 126.40 C 37.90 127.00 37.40 127.60 36.90 128.20 C 36.40 128.80 35.90 129.40 35.20 130.10 C 35.20 130.10 35.10 130.20 35.00 130.20 Z" fill="#000000" fill-rule="nonzero" group-id="2,4,7,11,53" node-id="386" stroke="none" target-height="4.2999954" target-width="4" target-x="34.7" target-y="125.9"></path><path d="M 122.10 167.40 C 122.00 167.40 121.90 167.40 121.90 167.30 C 121.90 167.30 121.90 167.30 121.90 167.20 C 121.40 166.40 120.90 165.50 120.50 164.50 C 119.80 163.00 119.10 161.40 117.90 160.60 C 117.20 160.10 116.50 159.90 115.70 159.60 C 113.50 158.80 110.90 157.90 108.40 158.10 C 105.80 158.30 103.30 159.60 101.70 161.60 C 101.50 161.90 101.20 162.30 100.90 162.60 C 100.40 163.20 99.90 163.90 99.40 164.50 C 99.40 164.50 99.30 164.60 99.30 164.60 L 99.30 164.60 C 99.20 164.70 99.00 164.70 98.90 164.60 C 98.80 164.50 98.80 164.30 98.90 164.20 L 98.90 164.20 C 98.90 164.20 99.00 164.10 99.00 164.10 C 99.50 163.60 100.00 162.90 100.40 162.30 C 100.70 161.90 100.90 161.60 101.20 161.30 C 102.90 159.10 105.60 157.70 108.40 157.50 C 111.00 157.30 113.60 158.30 115.90 159.10 C 116.70 159.40 117.50 159.70 118.20 160.20 C 119.50 161.10 120.30 162.70 121.00 164.30 C 121.40 165.20 121.90 166.10 122.40 166.90 C 122.40 166.90 122.40 166.90 122.40 166.90 C 122.50 167.00 122.50 167.20 122.30 167.30 C 122.20 167.40 122.10 167.40 122.10 167.40 Z" fill="#000000" fill-rule="nonzero" group-id="2,4,7,11,54" node-id="391" stroke="none" target-height="10.099991" target-width="23.699997" target-x="98.8" target-y="157.3"></path><path d="M 61.40 85.10 C 61.30 85.10 61.20 85.00 61.10 84.90 C 61.00 84.80 61.10 84.60 61.20 84.50 C 61.80 84.20 62.70 83.90 63.50 83.60 L 63.70 83.50 C 64.60 83.20 65.30 83.00 65.80 82.70 C 65.90 82.60 66.10 82.70 66.20 82.80 C 66.30 82.90 66.20 83.10 66.10 83.20 C 65.50 83.50 64.80 83.80 63.90 84.10 L 63.70 84.20 C 62.90 84.50 62.00 84.80 61.50 85.10 C 61.50 85.10 61.40 85.10 61.40 85.10 Z" fill="#000000" fill-rule="nonzero" group-id="2,4,7,11,55" node-id="396" stroke="none" target-height="2.5" target-width="5.300003" target-x="61" target-y="82.6"></path><path d="M 35.00 130.20 C 35.00 130.20 34.90 130.20 34.90 130.20 C 34.70 130.10 34.70 130.00 34.70 129.80 C 36.70 124.60 39.60 119.10 43.20 113.70 C 45.60 110.20 47.90 106.70 50.30 103.20 C 50.60 102.70 51.00 102.20 51.30 101.70 L 51.30 101.70 C 54.90 96.30 58.60 90.80 61.10 84.70 C 61.20 84.50 61.30 84.50 61.50 84.50 C 61.70 84.60 61.70 84.70 61.70 84.90 C 59.20 91.10 55.50 96.60 51.90 102.00 L 51.90 102.00 C 51.60 102.50 51.20 103.00 50.90 103.50 C 48.50 107.00 46.20 110.50 43.80 114.00 C 40.20 119.40 37.30 124.80 35.40 130.00 C 35.30 130.10 35.20 130.20 35.00 130.20 Z" fill="#000000" fill-rule="nonzero" group-id="2,4,7,11,56" node-id="401" stroke="none" target-height="45.699997" target-width="27" target-x="34.7" target-y="84.5"></path><path d="M 106.60 150.80 C 106.50 150.80 106.40 150.80 106.40 150.70 C 100.50 144.90 92.10 141.90 83.90 139.60 C 82.50 139.20 81.20 138.80 79.90 138.40 C 78.50 138.00 77.00 137.50 75.60 137.10 C 75.40 137.10 75.30 136.90 75.40 136.70 C 75.40 136.50 75.60 136.40 75.80 136.50 C 77.30 136.90 78.70 137.40 80.10 137.80 C 81.40 138.20 82.80 138.60 84.10 139.00 C 92.40 141.30 100.90 144.30 106.90 150.20 C 107.00 150.30 107.00 150.50 106.90 150.60 C 106.80 150.80 106.70 150.80 106.60 150.80 Z" fill="#000000" fill-rule="nonzero" group-id="2,4,7,11,57" node-id="406" stroke="none" target-height="14.400009" target-width="31.699997" target-x="75.3" target-y="136.4"></path><path d="M 101.60 151.00 C 101.50 151.00 101.50 151.00 101.40 150.90 C 94.90 145.80 87.30 142.20 79.30 140.30 C 79.10 140.30 79.00 140.10 79.10 139.90 C 79.10 139.70 79.30 139.60 79.50 139.70 C 87.60 141.60 95.30 145.30 101.80 150.40 C 101.90 150.50 102.00 150.70 101.90 150.80 C 101.80 150.90 101.70 151.00 101.60 151.00 Z" fill="#000000" fill-rule="nonzero" group-id="2,4,7,11,58" node-id="411" stroke="none" target-height="11.399994" target-width="23" target-x="79" target-y="139.6"></path><path d="M 103.30 155.60 C 103.20 155.60 103.20 155.60 103.10 155.50 C 95.30 149.40 84.00 143.60 75.00 141.10 C 74.80 141.10 74.70 140.90 74.80 140.70 C 74.80 140.50 75.00 140.40 75.20 140.50 C 84.30 143.10 95.60 148.90 103.50 155.10 C 103.60 155.20 103.70 155.40 103.60 155.50 C 103.50 155.60 103.40 155.60 103.30 155.60 Z" fill="#000000" fill-rule="nonzero" group-id="2,4,7,11,59" node-id="416" stroke="none" target-height="15.200012" target-width="29" target-x="74.7" target-y="140.4"></path><path d="M 70.10 139.70 C 70.00 139.70 70.00 139.70 70.10 139.70 C 62.40 137.40 53.70 134.90 47.40 129.00 C 47.00 128.60 46.50 128.20 46.10 127.70 C 44.90 126.50 43.60 125.20 42.10 124.40 C 41.90 124.30 41.90 124.10 42.00 124.00 C 42.10 123.80 42.30 123.80 42.40 123.90 C 44.00 124.80 45.30 126.10 46.60 127.30 C 47.00 127.70 47.40 128.10 47.90 128.50 C 54.10 134.30 62.70 136.80 70.20 139.00 C 70.40 139.00 70.50 139.20 70.40 139.40 C 70.30 139.60 70.20 139.70 70.10 139.70 Z" fill="#000000" fill-rule="nonzero" group-id="2,4,7,11,60" node-id="421" stroke="none" target-height="15.899994" target-width="28.599998" target-x="41.9" target-y="123.8"></path><path d="M 75.80 135.30 C 75.80 135.30 75.80 135.30 75.80 135.30 C 65.70 133.90 56.60 128.50 48.50 123.70 C 47.70 123.20 45.20 121.60 44.30 119.70 C 44.20 119.50 44.30 119.40 44.40 119.30 C 44.60 119.20 44.70 119.30 44.80 119.40 C 45.60 121.10 48.10 122.70 48.80 123.10 C 56.80 127.90 65.90 133.30 75.80 134.60 C 76.00 134.60 76.10 134.80 76.10 134.90 C 76.10 135.20 76.00 135.30 75.80 135.30 Z" fill="#000000" fill-rule="nonzero" group-id="2,4,7,11,61" node-id="426" stroke="none" target-height="16.100006" target-width="31.899998" target-x="44.2" target-y="119.2"></path><path d="M 199.40 174.60 C 199.30 174.60 199.20 174.60 199.20 174.50 C 196.90 171.70 196.10 170.00 195.10 167.70 C 194.60 166.50 194.00 165.20 193.10 163.40 C 192.80 162.80 191.50 161.40 190.60 160.40 C 190.30 160.10 190.00 159.70 189.80 159.50 C 189.70 159.40 189.70 159.20 189.80 159.10 C 189.90 159.00 190.10 159.00 190.20 159.10 C 190.40 159.30 190.60 159.60 191.00 159.90 C 191.90 160.90 193.20 162.30 193.50 163.00 C 194.40 164.70 195.00 166.10 195.60 167.30 C 196.60 169.50 197.30 171.20 199.60 173.90 C 199.70 174.00 199.70 174.20 199.60 174.30 C 199.50 174.60 199.50 174.60 199.40 174.60 Z" fill="#000000" fill-rule="nonzero" group-id="2,4,7,11,62" node-id="431" stroke="none" target-height="15.600006" target-width="10" target-x="189.7" target-y="159"></path><path d="M 188.10 164.20 C 184.60 164.20 181.00 164.00 177.50 163.50 C 175.20 163.20 173.00 162.80 171.00 162.30 C 170.70 162.20 170.40 162.20 170.10 162.10 C 165.40 160.90 160.80 159.10 156.40 157.40 C 152.80 156.00 149.20 154.50 145.40 153.40 C 138.40 151.30 128.30 149.80 120.20 154.50 C 120.10 154.60 119.90 154.50 119.80 154.40 C 119.70 154.30 119.80 154.10 119.90 154.00 C 128.20 149.20 138.50 150.70 145.60 152.80 C 149.30 153.90 153.00 155.40 156.60 156.80 C 161.00 158.50 165.60 160.40 170.30 161.50 C 170.60 161.60 170.90 161.60 171.20 161.70 C 173.20 162.20 175.30 162.50 177.70 162.80 C 182.40 163.40 187.10 163.60 191.80 163.40 C 192.00 163.40 192.10 163.50 192.10 163.70 C 192.10 163.90 192.00 164.00 191.80 164.00 C 190.50 164.10 189.30 164.20 188.10 164.20 Z" fill="#000000" fill-rule="nonzero" group-id="2,4,7,11,63" node-id="436" stroke="none" target-height="15" target-width="72.40001" target-x="119.7" target-y="149.2"></path><path d="M 171.10 162.30 C 171.10 162.30 171.10 162.30 171.10 162.30 L 171.10 162.30 C 161.70 161.60 152.50 159.90 143.60 157.20 C 142.80 157.00 142.00 156.70 141.30 156.50 C 138.40 155.60 135.40 154.60 132.40 154.10 C 128.60 153.50 123.80 152.90 120.30 154.50 C 120.10 154.60 120.00 154.50 119.90 154.30 C 119.80 154.10 119.90 154.00 120.10 153.90 C 123.80 152.30 128.70 152.80 132.60 153.50 C 135.70 154.00 138.70 155.00 141.60 155.90 C 142.40 156.10 143.20 156.40 143.90 156.60 C 152.80 159.30 162.00 161.00 171.20 161.70 L 171.20 161.70 C 171.40 161.70 171.50 161.90 171.50 162.00 C 171.40 162.20 171.30 162.30 171.10 162.30 Z" fill="#000000" fill-rule="nonzero" group-id="2,4,7,11,64" node-id="441" stroke="none" target-height="10" target-width="51.699997" target-x="119.8" target-y="152.3"></path><path d="M 115.30 153.80 C 115.20 153.80 115.10 153.80 115.10 153.70 C 115.00 153.60 115.00 153.40 115.10 153.30 C 115.20 153.20 115.30 153.10 115.50 152.90 C 116.40 151.90 118.00 150.10 122.60 149.00 C 132.20 146.70 140.90 148.60 148.90 151.00 C 149.10 151.00 149.20 151.20 149.10 151.40 C 149.10 151.60 148.90 151.70 148.70 151.60 C 140.70 149.20 132.10 147.30 122.70 149.60 C 118.30 150.70 116.70 152.40 115.90 153.30 C 115.70 153.50 115.60 153.60 115.50 153.70 C 115.40 153.80 115.30 153.80 115.30 153.80 Z" fill="#000000" fill-rule="nonzero" group-id="2,4,7,11,65" node-id="446" stroke="none" target-height="7.100006" target-width="34.199997" target-x="115" target-y="146.7"></path><path d="M 114.20 153.40 C 114.10 153.40 114.10 153.40 114.20 153.40 C 113.90 153.30 113.90 153.20 113.90 153.00 C 114.70 150.40 118.90 147.60 119.50 147.40 C 124.20 144.90 130.00 144.50 135.00 146.20 C 135.20 146.30 135.20 146.40 135.20 146.60 C 135.10 146.80 135.00 146.80 134.80 146.80 C 130.00 145.10 124.40 145.60 119.80 148.00 C 119.40 148.20 115.30 150.90 114.50 153.30 C 114.40 153.30 114.30 153.40 114.20 153.40 Z" fill="#000000" fill-rule="nonzero" group-id="2,4,7,11,66" node-id="451" stroke="none" target-height="8.899994" target-width="21.299995" target-x="113.9" target-y="144.5"></path><path d="M 186.90 168.70 C 186.90 168.70 186.90 168.70 186.90 168.70 L 186.90 168.70 C 181.00 168.50 174.90 168.30 168.90 167.40 C 165.60 166.90 162.40 166.10 159.20 165.40 C 158.70 165.30 158.10 165.20 157.60 165.00 C 154.90 164.40 152.00 163.60 148.90 162.80 C 139.90 160.40 129.80 157.70 121.10 158.10 C 120.90 158.10 120.80 158.00 120.80 157.80 C 120.80 157.60 120.90 157.50 121.10 157.50 C 129.80 157.00 140.10 159.70 149.10 162.20 C 152.20 163.00 155.10 163.80 157.80 164.40 C 158.30 164.50 158.90 164.60 159.40 164.80 C 162.60 165.50 165.80 166.30 169.10 166.80 C 175.00 167.70 181.10 167.90 186.90 168.10 L 186.90 168.10 C 187.10 168.10 187.20 168.20 187.20 168.40 C 187.20 168.60 187.10 168.70 186.90 168.70 Z" fill="#000000" fill-rule="nonzero" group-id="2,4,7,11,67" node-id="456" stroke="none" target-height="11.699997" target-width="66.399994" target-x="120.8" target-y="157"></path><path d="M 195.10 167.10 C 195.10 167.10 195.10 167.10 195.10 167.10 C 194.90 167.10 194.80 166.90 194.80 166.80 C 195.00 163.40 195.00 161.50 194.80 157.90 C 194.80 157.70 194.90 157.60 195.10 157.60 C 195.30 157.60 195.40 157.70 195.40 157.90 C 195.60 161.50 195.50 163.50 195.40 166.80 C 195.40 167.00 195.20 167.10 195.10 167.10 Z" fill="#000000" fill-rule="nonzero" group-id="2,4,7,11,68" node-id="461" stroke="none" target-height="9.5" target-width="0.80000305" target-x="194.8" target-y="157.6"></path><path d="M 194.50 150.00 C 194.30 150.00 194.20 149.90 194.20 149.70 C 194.10 149.00 194.10 148.20 194.00 147.50 C 194.00 147.30 194.10 147.20 194.30 147.20 C 194.50 147.20 194.60 147.30 194.60 147.50 C 194.70 148.20 194.70 149.00 194.80 149.70 C 194.80 149.80 194.70 149.90 194.50 150.00 C 194.50 150.00 194.50 150.00 194.50 150.00 Z" fill="#000000" fill-rule="nonzero" group-id="2,4,7,11,69" node-id="466" stroke="none" target-height="2.800003" target-width="0.80000305" target-x="194" target-y="147.2"></path><path d="M 194.10 145.30 C 193.90 145.30 193.80 145.20 193.80 145.00 C 193.50 141.90 193.10 138.90 192.80 136.00 C 192.20 130.80 191.70 126.30 191.60 123.00 C 191.60 122.80 191.70 122.70 191.90 122.70 C 192.10 122.70 192.20 122.80 192.20 123.00 C 192.30 126.20 192.80 130.70 193.40 135.90 C 193.70 138.80 194.10 141.80 194.40 144.90 C 194.40 145.10 194.30 145.30 194.10 145.30 C 194.10 145.30 194.10 145.30 194.10 145.30 Z" fill="#000000" fill-rule="nonzero" group-id="2,4,7,11,70" node-id="471" stroke="none" target-height="22.600006" target-width="2.7999878" target-x="191.6" target-y="122.7"></path><path d="M 47.00 118.40 C 46.90 118.40 46.80 118.40 46.70 118.30 C 46.60 118.20 46.60 118.00 46.80 117.90 C 48.40 116.80 49.00 115.60 49.70 114.40 C 50.20 113.60 50.60 112.70 51.40 111.90 C 51.50 111.80 51.70 111.80 51.80 111.90 C 51.90 112.00 51.90 112.20 51.80 112.30 C 51.10 113.10 50.70 113.80 50.20 114.70 C 49.50 116.00 48.80 117.30 47.10 118.40 C 47.20 118.30 47.10 118.40 47.00 118.40 Z" fill="#000000" fill-rule="nonzero" group-id="2,4,7,11,71" node-id="476" stroke="none" target-height="6.5999985" target-width="5.300003" target-x="46.6" target-y="111.8"></path><path d="M 46.60 115.00 C 46.50 115.00 46.50 115.00 46.40 115.00 C 46.20 114.90 46.20 114.70 46.30 114.60 C 49.10 109.60 52.00 104.30 54.80 99.30 C 57.70 94.10 60.70 88.80 63.50 83.70 C 63.50 83.70 63.50 83.70 63.50 83.70 C 63.50 83.70 63.50 83.70 63.50 83.70 C 63.60 83.60 63.80 83.50 63.90 83.60 C 64.00 83.70 64.10 83.90 64.00 84.00 C 61.20 89.10 58.20 94.40 55.30 99.50 C 52.50 104.60 49.50 109.80 46.80 114.80 C 46.90 115.00 46.80 115.00 46.60 115.00 Z" fill="#000000" fill-rule="nonzero" group-id="2,4,7,11,72" node-id="481" stroke="none" target-height="31.5" target-width="17.899998" target-x="46.2" target-y="83.5"></path><path d="M 38.50 126.50 C 38.50 126.50 38.40 126.50 38.40 126.50 C 38.20 126.40 38.20 126.30 38.20 126.10 C 38.40 125.60 38.60 125.10 38.90 124.50 C 40.70 120.30 43.90 114.70 46.50 110.10 C 48.20 107.20 49.60 104.70 50.30 103.20 C 50.40 103.00 50.60 103.00 50.70 103.10 C 50.90 103.20 50.90 103.40 50.80 103.50 C 50.10 105.00 48.60 107.50 47.00 110.50 C 44.40 115.00 41.20 120.60 39.40 124.80 C 39.10 125.40 38.90 125.90 38.80 126.40 C 38.70 126.40 38.60 126.50 38.50 126.50 Z" fill="#000000" fill-rule="nonzero" group-id="2,4,7,11,73" node-id="486" stroke="none" target-height="23.5" target-width="12.700001" target-x="38.2" target-y="103"></path><path d="M 186.00 159.90 C 185.80 159.90 185.60 159.90 185.40 159.90 C 177.00 159.80 168.90 157.00 163.50 154.90 C 163.30 154.80 163.30 154.70 163.30 154.50 C 163.40 154.30 163.50 154.30 163.70 154.30 C 169.00 156.40 177.00 159.20 185.30 159.20 C 186.50 159.20 188.20 159.20 189.80 159.00 C 190.00 159.00 190.10 159.10 190.10 159.30 C 190.10 159.50 190.00 159.60 189.80 159.60 C 188.70 159.90 187.20 159.90 186.00 159.90 Z" fill="#000000" fill-rule="nonzero" group-id="2,4,7,11,74" node-id="491" stroke="none" target-height="5.599991" target-width="26.800003" target-x="163.3" target-y="154.3"></path><path d="M 190.00 159.70 C 189.80 159.70 189.70 159.60 189.70 159.40 C 189.60 158.80 189.50 158.30 189.40 157.70 C 189.30 157.10 189.20 156.60 189.10 156.00 C 189.10 155.80 189.20 155.70 189.40 155.60 C 189.60 155.60 189.70 155.70 189.80 155.90 C 189.90 156.50 190.00 157.00 190.10 157.60 C 190.20 158.20 190.30 158.70 190.40 159.30 C 190.40 159.60 190.30 159.70 190.00 159.70 C 190.10 159.70 190.10 159.70 190.00 159.70 Z" fill="#000000" fill-rule="nonzero" group-id="2,4,7,11,75" node-id="496" stroke="none" target-height="4.099991" target-width="1.2999878" target-x="189.1" target-y="155.6"></path><g clip-path="url(#SVGID_4_)" group-id="2,5" node-id="506"><path d="M 189.20 149.30 C 189.20 149.30 184.00 147.60 180.90 148.90 C 177.70 150.20 160.30 151.50 151.20 147.00 C 142.20 142.50 132.40 140.80 131.10 142.90 C 129.80 144.90 121.80 144.40 121.80 144.40 L 127.10 132.30 L 187.00 135.30 L 191.20 144.80 L 189.20 149.30 Z" fill="#000000" fill-opacity="0.2" fill-rule="nonzero" group-id="2,5,8,12" node-id="508" stroke="none" target-height="19.199997" target-width="69.399994" target-x="121.8" target-y="132.3"></path></g><g clip-path="url(#SVGID_6_)" group-id="2,6" node-id="517"><path d="M 179.50 93.50 C 179.50 93.50 179.60 118.70 184.30 128.10 C 184.30 128.10 165.80 139.10 153.80 135.20 C 141.80 131.30 136.40 133.50 136.40 133.50 C 136.40 133.50 132.00 137.00 132.30 140.20 C 132.60 143.50 112.30 152.50 112.30 152.50 L 80.40 130.80 C 78.00 129.10 75.10 128.10 72.20 127.70 C 66.50 127.00 56.00 124.20 50.50 113.20 C 42.70 97.60 52.30 106.10 52.30 106.10 L 175.10 87.10 L 179.50 93.50 Z" fill="#000000" fill-opacity="0.2" fill-rule="nonzero" group-id="2,6,9,13" node-id="519" stroke="none" target-height="65.4" target-width="141.6" target-x="42.7" target-y="87.1"></path></g></g></g><path d="M 225.60 126.00 C 225.60 181.23 180.83 226.00 125.60 226.00 C 70.37 226.00 25.60 181.23 25.60 126.00 C 25.60 70.77 70.37 26.00 125.60 26.00 C 180.83 26.00 225.60 70.77 225.60 126.00 Z" fill="none" group-id="3" node-id="527" stroke="#000000" stroke-linecap="round" stroke-width="3" target-height="200" target-width="200" target-x="25.6" target-y="26"></path></svg>