<?xml version="1.0" standalone="no"?><!DOCTYPE svg PUBLIC "-//W3C//DTD SVG 1.1//EN" "http://www.w3.org/Graphics/SVG/1.1/DTD/svg11.dtd"><svg height="300" node-id="1" sillyvg="true" template-height="300" template-width="300" version="1.1" viewBox="0 0 300 300" width="300" xmlns="http://www.w3.org/2000/svg" xmlns:xlink="http://www.w3.org/1999/xlink"><defs node-id="36"></defs><path d="M 95.90 43.00 C 101.80 38.90 220.90 18.60 202.00 41.20 C 183.90 62.90 210.30 178.30 196.10 182.70 C 181.90 187.10 106.50 174.50 94.40 182.70 C 87.20 187.60 76.90 152.40 87.00 118.50 C 87.90 115.30 88.60 112.40 88.70 109.20 C 90.40 76.50 93.10 44.90 95.90 43.00 Z" fill="#fcf6d8" fill-rule="nonzero" id="矩形_2" node-id="4" stroke="none" target-height="169" target-width="144" target-x="76.9" target-y="18.6"></path><path d="M 137.10 103.70 C 137.20 103.40 137.10 103.20 136.90 102.90 C 136.70 102.70 136.40 102.60 136.10 102.60 C 135.90 102.60 135.80 102.70 135.60 102.80 C 135.40 102.90 135.30 103.00 135.20 103.10 C 135.00 103.30 134.80 103.50 134.60 103.70 C 134.40 103.90 134.20 104.10 134.00 104.30 C 133.40 104.90 132.80 105.50 132.10 106.10 C 131.40 106.80 130.70 107.30 130.10 107.80 C 130.00 107.90 130.00 107.90 129.90 108.00 L 129.70 108.10 C 129.60 108.10 129.50 108.20 129.50 108.20 L 129.20 108.40 C 129.10 108.50 128.90 108.60 128.80 108.70 C 128.70 108.80 128.60 108.90 128.60 109.00 C 128.50 109.30 128.60 109.60 128.90 109.70 C 129.10 109.90 129.40 110.00 129.70 110.00 C 129.90 110.00 130.20 109.90 130.40 109.80 C 130.60 109.70 130.80 109.50 131.00 109.30 C 131.20 109.10 131.30 109.00 131.60 108.70 L 132.20 108.10 C 132.40 108.00 132.60 107.80 132.90 107.50 C 133.20 107.20 133.50 106.90 134.00 106.50 C 133.80 106.90 133.70 107.40 133.50 108.00 C 133.30 108.60 133.10 109.10 132.90 109.80 L 132.30 111.60 C 132.10 112.20 131.00 118.00 130.90 118.50 C 130.70 119.50 130.40 120.50 130.20 121.50 C 130.00 122.50 129.80 123.30 129.60 124.10 C 129.50 124.40 129.60 124.80 129.70 125.10 C 129.90 125.40 130.20 125.50 130.60 125.50 C 130.80 125.50 131.10 125.40 131.30 125.30 C 131.50 125.20 131.60 125.10 131.70 124.90 C 131.70 124.80 131.70 124.70 131.80 124.40 C 131.80 124.10 131.80 123.80 131.90 123.60 C 131.90 123.30 131.90 123.00 132.00 122.70 C 132.00 122.40 132.10 122.10 132.10 121.80 C 132.40 120.00 133.80 113.00 134.30 111.10 C 134.80 109.20 135.40 107.40 136.20 105.70 C 136.30 105.50 136.30 105.40 136.40 105.20 L 136.60 104.70 L 136.80 104.20 C 137.00 104.00 137.10 103.90 137.10 103.70 Z M 154.40 109.80 C 155.30 105.10 154.10 102.70 150.90 102.70 C 148.90 102.70 147.00 103.80 145.30 106.10 C 143.70 108.20 141.70 115.90 141.20 118.80 C 140.80 120.90 140.90 122.60 141.60 123.70 C 142.30 124.80 143.50 125.40 145.20 125.40 C 147.30 125.40 149.20 124.20 150.80 121.90 C 152.00 120.10 153.90 112.60 154.40 109.80 L 154.40 109.80 Z M 152.50 110.00 C 152.10 112.20 150.40 119.30 149.30 120.90 C 148.10 122.70 146.90 123.60 145.60 123.60 C 143.40 123.60 142.60 122.00 143.20 118.60 C 143.70 116.20 145.50 108.90 146.70 107.10 C 148.00 105.30 149.20 104.40 150.40 104.40 C 152.50 104.50 153.10 106.40 152.50 110.00 L 152.50 110.00 Z M 169.70 109.80 C 170.60 105.10 169.40 102.70 166.20 102.70 C 164.20 102.70 162.30 103.80 160.60 106.10 C 159.00 108.20 157.00 115.90 156.50 118.80 C 156.10 120.90 156.20 122.60 156.90 123.70 C 157.60 124.80 158.80 125.40 160.50 125.40 C 162.60 125.40 164.50 124.20 166.10 121.90 C 167.30 120.10 169.20 112.60 169.70 109.80 L 169.70 109.80 Z M 167.80 110.00 C 167.40 112.20 165.70 119.30 164.60 120.90 C 163.40 122.70 162.20 123.60 160.90 123.60 C 158.70 123.60 157.90 122.00 158.50 118.60 C 159.00 116.20 160.80 108.90 162.00 107.10 C 163.30 105.30 164.50 104.40 165.70 104.40 C 167.80 104.50 168.50 106.40 167.80 110.00 L 167.80 110.00 Z" fill="#ff0000" fill-rule="nonzero" id="_100" node-id="5" stroke="none" target-height="22.900002" target-width="42.100006" target-x="128.5" target-y="102.6"></path><path d="M 170.80 113.70 L 173.10 121.20 L 186.40 95.60" fill="none" id="形状_54" node-id="6" stroke="#fc4f5a" stroke-linecap="butt" stroke-width="0.7527" target-height="25.599998" target-width="15.599991" target-x="170.8" target-y="95.6"></path><g node-id="38"><path d="M 134.70 128.80 L 171.80 128.80" fill="none" group-id="1" id="形状_37" node-id="7" stroke="#fc4f5a" stroke-linecap="butt" stroke-opacity="0.32" stroke-width="0.7527" target-height="0" target-width="37.100006" target-x="134.7" target-y="128.8"></path></g><g node-id="39"><path d="M 124.70 132.30 L 176.90 132.30" fill="none" group-id="2" id="形状_37_拷贝" node-id="8" stroke="#fc4f5a" stroke-linecap="butt" stroke-opacity="0.32" stroke-width="0.7527" target-height="0" target-width="52.199997" target-x="124.7" target-y="132.3"></path></g><path d="M 80.40 160.60 C 80.40 160.60 86.60 153.10 88.60 145.40 C 90.60 137.70 94.20 123.20 95.80 120.50 C 97.40 117.70 95.20 109.90 89.90 117.70 C 84.60 125.50 85.40 128.30 83.20 130.70 C 81.00 133.10 74.50 142.40 74.50 142.40 C 74.50 142.40 72.90 130.80 77.80 126.40 C 82.70 122.00 83.60 118.20 86.00 118.60 C 88.40 119.00 88.80 109.90 88.80 109.90 L 85.80 109.20 C 85.80 109.20 81.80 111.80 80.20 113.10 C 78.50 114.40 66.70 121.30 65.90 125.90 C 65.10 130.50 61.50 152.70 61.10 161.00 C 60.60 171.80 59.70 175.70 59.70 175.70 L 76.00 172.40 C 76.00 172.40 76.90 183.10 80.40 160.60 Z" fill="#ead0b1" fill-rule="nonzero" id="形状_8" node-id="9" stroke="none" target-height="73.90001" target-width="37.7" target-x="59.7" target-y="109.2"></path><path d="M 80.40 160.60 C 80.40 160.60 86.60 153.10 88.60 145.40 C 90.60 137.70 94.20 123.20 95.80 120.50 C 97.40 117.70 95.20 109.90 89.90 117.70 C 84.60 125.50 85.40 128.30 83.20 130.70 C 81.00 133.10 74.50 142.40 74.50 142.40 C 74.50 142.40 72.90 130.80 77.80 126.40 C 82.70 122.00 83.60 118.20 86.00 118.60 C 88.40 119.00 88.80 109.90 88.80 109.90 L 85.80 109.20 C 85.80 109.20 81.80 111.80 80.20 113.10 C 78.50 114.40 66.70 121.30 65.90 125.90 C 65.10 130.50 61.50 152.70 61.10 161.00 C 60.60 171.80 59.70 175.70 59.70 175.70 L 76.00 172.40 C 76.00 172.40 76.90 183.10 80.40 160.60 Z" fill="#f5d9c1" fill-rule="nonzero" id="形状_8_拷贝" node-id="10" stroke="none" target-height="73.90001" target-width="37.7" target-x="59.7" target-y="109.2"></path><path d="M 205.30 160.90 C 199.00 154.10 197.40 145.40 196.50 140.20 C 195.60 135.00 192.80 122.40 190.10 117.40 C 187.30 112.40 188.10 108.70 190.60 108.40 C 193.10 108.10 200.10 116.10 199.90 118.90 C 199.80 121.70 213.00 138.60 213.00 138.60 C 213.00 138.60 210.70 131.20 212.00 129.10 C 213.20 127.30 212.40 123.30 209.40 120.80 C 206.40 118.30 200.30 112.00 200.30 112.00 L 197.70 114.10 L 196.50 104.40 L 198.90 102.70 C 206.00 103.60 221.10 117.70 222.10 119.30 C 223.10 121.00 223.20 139.20 225.00 146.40 C 226.30 151.90 226.80 158.50 229.50 164.90 C 232.00 170.80 218.20 174.70 218.20 174.70 L 206.90 170.70 C 206.70 170.70 211.60 167.80 205.30 160.90 Z" fill="#f29b76" fill-rule="nonzero" id="形状_10" node-id="12" stroke="none" target-height="72" target-width="44.699997" target-x="187.3" target-y="102.7"></path><path d="M 205.30 160.90 C 199.00 154.10 197.40 145.40 196.50 140.20 C 195.60 135.00 192.80 122.40 190.10 117.40 C 187.30 112.40 188.10 108.70 190.60 108.40 C 193.10 108.10 200.10 116.10 199.90 118.90 C 199.80 121.70 213.00 138.60 213.00 138.60 C 213.00 138.60 210.70 131.20 212.00 129.10 C 213.20 127.30 212.40 123.30 209.40 120.80 C 206.40 118.30 200.30 112.00 200.30 112.00 L 197.70 114.10 L 196.50 104.40 L 198.90 102.70 C 206.00 103.60 221.10 117.70 222.10 119.30 C 223.10 121.00 223.20 139.20 225.00 146.40 C 226.30 151.90 226.80 158.50 229.50 164.90 C 232.00 170.80 218.20 174.70 218.20 174.70 L 206.90 170.70 C 206.70 170.70 211.60 167.80 205.30 160.90 Z" fill="#f5d9c1" fill-rule="nonzero" id="形状_10_拷贝" node-id="13" stroke="none" target-height="72" target-width="44.699997" target-x="187.3" target-y="102.7"></path><path d="M 101.90 184.80 C 101.90 184.80 93.90 197.70 111.60 211.70 L 119.20 211.10 C 119.20 211.10 108.10 180.60 101.90 184.80 Z" fill="#ead0b1" fill-rule="nonzero" id="形状_5" node-id="15" stroke="none" target-height="31.09999" target-width="25.299995" target-x="93.9" target-y="180.6"></path><path d="M 137.50 226.90 C 137.50 226.90 143.20 235.00 136.20 245.70 C 129.30 256.40 158.80 265.80 158.80 265.80 L 185.40 257.30 C 185.40 257.30 167.80 225.50 174.90 218.90 C 181.90 212.30 137.50 226.90 137.50 226.90 Z" fill="#ead0b1" fill-rule="nonzero" id="形状_11" node-id="16" stroke="none" target-height="53.499985" target-width="56.09999" target-x="129.3" target-y="212.3"></path><path d="M 133.00 217.20 C 133.00 217.20 137.20 235.00 130.20 245.70 C 123.30 256.40 152.80 265.80 152.80 265.80 L 179.40 257.30 C 179.40 257.30 161.80 225.50 168.90 218.90 C 175.90 212.30 133.00 217.20 133.00 217.20 Z" fill="#f5d9c1" fill-rule="nonzero" id="形状_11_拷贝" node-id="17" stroke="none" target-height="53.499985" target-width="56.09999" target-x="123.3" target-y="212.3"></path><path d="M 220.00 262.50 C 253.00 215.20 230.50 159.40 230.50 159.40 L 206.70 166.20 C 211.60 238.20 178.60 241.50 178.60 241.50 C 170.00 248.70 136.70 244.80 136.70 244.80 C 87.60 262.30 82.50 168.80 82.50 168.80 L 58.40 163.30 C 41.40 251.90 76.70 271.40 103.50 283.00 L 103.40 297.80 L 205.50 297.80 L 206.40 276.50 C 206.50 276.30 213.90 271.30 220.00 262.50 Z" fill="#4f88ff" fill-rule="nonzero" id="形状_34" node-id="18" stroke="none" target-height="138.4" target-width="211.6" target-x="41.4" target-y="159.4"></path><path d="M 205.60 275.30 C 204.10 276.50 205.30 276.00 207.70 274.30 C 211.00 272.10 216.40 267.70 220.00 262.50 C 253.00 215.20 230.50 159.40 230.50 159.40 L 206.70 166.20 C 211.60 238.20 178.60 241.50 178.60 241.50 C 170.00 248.70 132.30 241.50 132.30 241.50 C 83.20 259.00 82.50 168.70 82.50 168.70 L 58.40 163.20 C 41.40 251.80 76.70 271.30 103.50 282.90" fill="#4f88ff" fill-rule="nonzero" id="形状_34_拷贝" node-id="19" stroke="none" target-height="123.5" target-width="211.6" target-x="41.4" target-y="159.4"></path><path d="M 139.70 237.90 C 139.70 237.90 154.70 246.70 167.00 238.70 L 171.50 242.20 C 171.50 242.20 166.60 261.20 156.40 262.50 C 156.40 262.50 151.90 249.50 142.60 247.90 C 133.30 246.30 137.80 241.40 137.80 241.40 L 139.70 237.90 Z" fill="#e34245" fill-rule="nonzero" id="形状_35" node-id="20" stroke="none" target-height="24.600006" target-width="38.199997" target-x="133.3" target-y="237.9"></path><path d="M 134.50 236.30 C 134.50 236.30 154.70 246.80 167.00 238.70 L 171.50 242.20 C 171.50 242.20 166.60 261.20 156.40 262.50 C 156.40 262.50 151.90 249.50 142.60 247.90 C 133.30 246.30 132.60 239.70 132.60 239.70 L 134.50 236.30 Z" fill="#ff3203" fill-rule="nonzero" id="形状_35_拷贝" node-id="21" stroke="none" target-height="26.199997" target-width="38.899994" target-x="132.6" target-y="236.3"></path><path d="M 186.80 183.40 C 186.80 183.40 207.00 185.80 180.30 208.90 L 186.80 183.40 Z" fill="#ead0b1" fill-rule="nonzero" id="形状_4" node-id="22" stroke="none" target-height="25.5" target-width="26.699997" target-x="180.3" target-y="183.4"></path><path d="M 121.90 143.90 C 121.90 143.90 123.40 143.20 125.40 142.10 C 135.40 136.60 178.80 130.80 186.00 167.20 C 194.50 210.20 164.30 239.10 140.60 228.50 C 116.90 217.90 111.60 209.60 106.00 194.70 C 100.30 179.80 103.80 153.60 121.90 143.90 Z" fill="#3e1923" fill-rule="nonzero" id="形状_2" node-id="23" stroke="none" target-height="108.3" target-width="94.2" target-x="100.3" target-y="130.8"></path><path d="M 121.90 143.90 C 121.90 143.90 123.40 143.20 125.40 142.10 C 135.40 136.60 178.80 130.80 186.00 167.20 C 194.50 210.20 164.30 239.10 140.60 228.50 C 116.90 217.90 111.60 209.60 106.00 194.70 C 100.30 179.80 103.80 153.60 121.90 143.90 Z" fill="#3e1923" fill-rule="nonzero" id="形状_2_拷贝" node-id="24" stroke="none" target-height="108.3" target-width="94.2" target-x="100.3" target-y="130.8"></path><path d="M 165.10 176.00 C 165.10 186.82 156.32 195.60 145.50 195.60 C 134.68 195.60 125.90 186.82 125.90 176.00 C 125.90 165.18 134.68 156.40 145.50 156.40 C 156.32 156.40 165.10 165.18 165.10 176.00 Z" fill="#3b151f" fill-rule="nonzero" id="椭圆_6" node-id="25" stroke="none" target-height="39.200012" target-width="39.200005" target-x="125.9" target-y="156.4"></path><path d="M 146.10 162.30 C 146.10 162.30 151.20 153.90 159.90 156.30 C 168.60 158.70 174.10 157.70 176.70 154.20 C 176.70 154.20 175.60 162.90 172.80 164.50 C 170.00 166.10 167.40 172.20 159.50 166.20 C 151.50 160.20 146.10 162.30 146.10 162.30 Z" fill="#f27f3a" fill-rule="nonzero" id="形状_57" node-id="26" stroke="none" target-height="18.300003" target-width="30.59999" target-x="146.1" target-y="153.9"></path><path d="M 146.10 159.80 C 146.10 159.80 151.20 151.40 159.90 153.80 C 168.60 156.20 174.10 155.20 176.70 151.70 C 176.70 151.70 175.60 160.40 172.80 162.00 C 170.10 163.60 167.40 169.70 159.50 163.70 C 151.50 157.70 146.10 159.80 146.10 159.80 Z" fill="#f2af3a" fill-rule="nonzero" id="形状_57_拷贝" node-id="27" stroke="none" target-height="18.300003" target-width="30.59999" target-x="146.1" target-y="151.4"></path><path d="M 137.30 166.30 C 137.30 166.30 126.50 158.10 122.30 161.10 C 118.00 164.10 115.60 169.60 110.70 168.40 C 110.70 168.40 120.10 170.10 122.70 171.80 C 125.40 173.60 129.90 176.00 130.40 174.80 C 130.90 173.70 134.10 166.20 137.30 166.30 Z" fill="#f2853a" fill-rule="nonzero" id="形状_58" node-id="28" stroke="none" target-height="17.899994" target-width="26.600006" target-x="110.7" target-y="158.1"></path><path d="M 135.80 163.50 C 135.80 163.50 125.00 155.30 120.80 158.30 C 116.50 161.30 114.10 166.80 109.20 165.60 C 109.20 165.60 118.60 167.30 121.20 169.00 C 123.90 170.80 128.40 173.20 128.90 172.00 C 129.40 170.90 132.60 163.40 135.80 163.50 Z" fill="#f2af3a" fill-rule="nonzero" id="形状_58_拷贝" node-id="29" stroke="none" target-height="17.899994" target-width="26.600006" target-x="109.2" target-y="155.3"></path><path d="M 140.60 162.10 C 140.60 162.10 167.70 157.30 162.70 183.60 C 162.70 183.60 173.30 189.30 165.70 203.50 C 165.70 203.50 180.90 209.90 175.20 223.80 C 175.20 223.80 189.70 235.20 180.60 246.40 C 180.60 246.40 189.90 254.20 180.10 265.10 C 180.10 265.10 182.50 272.20 189.60 272.60 C 199.70 273.20 188.90 283.90 200.70 291.60 C 200.50 291.60 174.10 301.30 168.80 282.70 C 163.30 263.50 172.60 265.80 172.60 265.80 C 172.60 265.80 158.10 256.40 167.20 251.20 C 167.20 251.20 157.10 235.80 160.90 228.10 C 160.90 228.10 147.00 226.60 152.60 213.50 C 152.60 213.50 134.40 209.50 141.00 194.10 C 140.90 194.00 115.30 175.70 140.60 162.10 Z" fill="#481e29" fill-rule="nonzero" id="形状_3" node-id="30" stroke="none" target-height="143.99998" target-width="85.399994" target-x="115.3" target-y="157.3"></path><path d="M 140.60 162.10 C 140.60 162.10 167.70 157.30 162.70 183.60 C 162.70 183.60 173.30 189.30 165.70 203.50 C 165.70 203.50 180.90 209.90 175.20 223.80 C 175.20 223.80 189.70 235.20 180.60 246.40 C 180.60 246.40 189.90 254.20 180.10 265.10 C 180.10 265.10 182.50 272.20 189.60 272.60 C 199.70 273.20 188.90 283.90 200.70 291.60 C 200.50 291.60 174.10 301.30 168.80 282.70 C 163.30 263.50 172.60 265.80 172.60 265.80 C 172.60 265.80 158.10 256.40 167.20 251.20 C 167.20 251.20 157.10 235.80 160.90 228.10 C 160.90 228.10 147.00 226.60 152.60 213.50 C 152.60 213.50 134.40 209.50 141.00 194.10 C 140.90 194.00 115.30 175.70 140.60 162.10 Z" fill="#481e29" fill-rule="nonzero" id="形状_3_拷贝" node-id="31" stroke="none" target-height="143.99998" target-width="85.399994" target-x="115.3" target-y="157.3"></path><path d="M 102.30 109.70 L 109.70 112.40 L 116.40 108.50 L 116.20 116.30 L 122.10 121.50 L 114.60 123.70 L 111.50 130.90 L 107.10 124.40 L 99.30 123.60 L 104.10 117.40 L 102.30 109.70" fill="#f5bb33" fill-rule="nonzero" id="形状_55" node-id="33" stroke="none" target-height="22.399994" target-width="22.799995" target-x="99.3" target-y="108.5"></path><path d="M 103.40 108.70 L 110.80 111.40 L 117.50 107.50 L 117.30 115.30 L 123.20 120.50 L 115.70 122.70 L 112.60 129.90 L 108.20 123.40 L 100.40 122.60 L 105.20 116.40 L 103.40 108.70" fill="#f5bb33" fill-rule="nonzero" id="形状_55_拷贝" node-id="34" stroke="none" target-height="22.399994" target-width="22.799995" target-x="100.4" target-y="107.5"></path></svg>