<?xml version="1.0" encoding="UTF-8"?>
<svg xmlns="http://www.w3.org/2000/svg" xmlns:xlink="http://www.w3.org/1999/xlink" width="32px" height="32px" viewBox="0 0 100 100" version="1.1">
<g id="surface1">
<path style=" stroke:none;fill-rule:nonzero;fill:rgb(98.823529%,98.823529%,98.823529%);fill-opacity:1;" d="M 44.605469 27.269531 L 46.941406 26.089844 L 49.210938 24.386719 L 51.441406 22.09375 L 50.023438 22.046875 L 45.960938 22.328125 L 42.09375 23.167969 L 38.382812 24.5625 L 34.789062 26.539062 L 36.644531 27.367188 L 38.609375 27.910156 L 40.566406 28.078125 L 42.554688 27.867188 Z M 44.605469 27.269531 "/>
<path style=" stroke:none;fill-rule:nonzero;fill:rgb(93.72549%,93.72549%,93.72549%);fill-opacity:1;" d="M 59.789062 23.804688 L 57.054688 22.9375 L 54.277344 22.371094 L 51.441406 22.09375 L 49.210938 24.386719 L 46.941406 26.089844 L 44.605469 27.269531 L 42.554688 27.867188 L 40.566406 28.078125 L 38.609375 27.910156 L 36.644531 27.367188 L 34.789062 26.539062 L 32.289062 28.347656 L 30.097656 30.316406 L 28.199219 32.445312 L 32.691406 30.542969 L 34.273438 30.410156 L 36.929688 30.835938 L 41.136719 32.152344 L 43.671875 32.820312 L 45.484375 32.8125 L 46.804688 32.300781 L 47.777344 31.324219 L 49.835938 29.027344 L 52.046875 27.15625 L 54.425781 25.671875 L 57 24.558594 Z M 59.789062 23.804688 "/>
<path style=" stroke:none;fill-rule:nonzero;fill:rgb(89.803922%,89.803922%,89.803922%);fill-opacity:1;" d="M 47.777344 31.324219 L 46.804688 32.300781 L 45.484375 32.8125 L 43.671875 32.820312 L 41.136719 32.152344 L 36.929688 30.835938 L 34.273438 30.410156 L 32.691406 30.542969 L 28.199219 32.445312 L 26.683594 34.449219 L 28.402344 34.023438 L 30.347656 34.105469 L 32.023438 34.554688 L 33.472656 35.277344 L 40.015625 39.429688 L 42.207031 40.308594 L 44.195312 40.671875 L 46.03125 40.582031 L 47.777344 40.0625 L 49.300781 39.042969 L 51.101562 37.269531 L 53.246094 34.496094 L 55.410156 31.558594 L 56.972656 29.84375 L 58.082031 28.980469 L 59.734375 28.222656 L 61.59375 27.917969 L 63.746094 28.101562 L 65.867188 28.660156 L 69.410156 29.859375 L 66.429688 27.347656 L 63.234375 25.335938 L 59.789062 23.804688 L 57 24.558594 L 54.425781 25.671875 L 52.046875 27.15625 L 49.835938 29.027344 Z M 47.777344 31.324219 "/>
<path style=" stroke:none;fill-rule:nonzero;fill:rgb(85.882353%,85.882353%,85.882353%);fill-opacity:1;" d="M 74.730469 36.839844 L 73.105469 34.167969 L 71.332031 31.851562 L 69.410156 29.859375 L 65.867188 28.660156 L 63.746094 28.101562 L 61.59375 27.917969 L 59.734375 28.222656 L 58.082031 28.980469 L 56.972656 29.84375 L 55.410156 31.558594 L 53.246094 34.496094 L 51.101562 37.269531 L 49.300781 39.042969 L 47.777344 40.0625 L 46.03125 40.582031 L 44.195312 40.671875 L 42.207031 40.308594 L 40.015625 39.429688 L 33.472656 35.277344 L 32.023438 34.554688 L 30.347656 34.105469 L 28.402344 34.023438 L 26.683594 34.449219 L 24.921875 37.558594 L 23.558594 40.796875 L 24.835938 40.394531 L 26.230469 40.351562 L 27.804688 40.703125 L 29.613281 41.527344 L 31.246094 42.617188 L 35.082031 45.582031 L 37.664062 47.097656 L 40.296875 48.117188 L 43.015625 48.664062 L 45.851562 48.753906 L 48.851562 48.363281 L 51.902344 47.421875 L 54.445312 46.054688 L 56.554688 44.261719 L 58.28125 42.011719 L 59.644531 39.234375 L 60.484375 37.976562 L 61.636719 37.25 L 63.210938 37.011719 L 65.40625 37.378906 L 69.316406 38.34375 L 71.410156 38.585938 L 72.386719 38.453125 L 73.605469 37.734375 Z M 74.730469 36.839844 "/>
<path style=" stroke:none;fill-rule:nonzero;fill:rgb(54.901961%,54.901961%,54.901961%);fill-opacity:1;" d="M 46.363281 76.34375 L 44.171875 76.058594 L 42.335938 76.09375 L 40.796875 76.390625 L 43.757812 77.257812 L 46.828125 77.777344 L 50.023438 77.953125 L 52.171875 77.855469 Z M 46.363281 76.34375 "/>
<path style=" stroke:none;fill-rule:nonzero;fill:rgb(60.784314%,60.784314%,60.784314%);fill-opacity:1;" d="M 60.375 72.828125 L 59.195312 71.960938 L 58.082031 71.703125 L 56.167969 72.113281 L 51.34375 74.046875 L 49.277344 74.757812 L 47.519531 74.949219 L 45.984375 74.703125 L 44.605469 74.046875 L 42.007812 72.820312 L 39.136719 72.046875 L 37.054688 71.828125 L 35.042969 71.894531 L 33.082031 72.242188 L 35.503906 73.921875 L 38.070312 75.300781 L 40.796875 76.390625 L 42.335938 76.09375 L 44.171875 76.058594 L 46.363281 76.34375 L 52.171875 77.855469 L 55.828125 77.34375 L 59.199219 76.410156 L 62.328125 75.074219 Z M 60.375 72.828125 "/>
<path style=" stroke:none;fill-rule:nonzero;fill:rgb(66.666667%,66.666667%,66.666667%);fill-opacity:1;" d="M 27.90625 63.792969 L 26.550781 63.65625 L 25.609375 63.746094 L 27.640625 66.859375 L 30.117188 69.6875 L 33.082031 72.242188 L 35.042969 71.894531 L 37.054688 71.828125 L 39.136719 72.046875 L 42.007812 72.820312 L 44.605469 74.046875 L 45.984375 74.703125 L 47.519531 74.949219 L 49.277344 74.757812 L 51.34375 74.046875 L 56.167969 72.113281 L 58.082031 71.703125 L 59.195312 71.960938 L 60.375 72.828125 L 62.328125 75.074219 L 65.570312 73.261719 L 68.425781 71.136719 L 70.929688 68.6875 L 73.109375 65.890625 L 74.976562 62.71875 L 72.667969 63.90625 L 68.433594 66.96875 L 65.46875 69.175781 L 63.414062 70.390625 L 62.035156 70.921875 L 60.394531 70.96875 L 58.148438 70.515625 L 55.101562 69.359375 L 52.113281 68.164062 L 50.328125 67.730469 L 49.339844 67.75 L 38.0625 68.726562 L 35.140625 68.304688 L 32.507812 67.351562 L 30.113281 65.867188 Z M 27.90625 63.792969 "/>
<path style=" stroke:none;fill-rule:nonzero;fill:rgb(71.764706%,71.764706%,71.764706%);fill-opacity:1;" d="M 77.660156 54.710938 L 72.777344 54.566406 L 71.054688 54.828125 L 69.609375 55.519531 L 68.382812 56.664062 L 65.40625 62.28125 L 64.125 64.058594 L 62.746094 65.316406 L 61.253906 66.136719 L 59.863281 66.433594 L 58.46875 66.371094 L 57.023438 65.929688 L 55.492188 65.0625 L 51.851562 62.660156 L 50.953125 62.183594 L 48.410156 61.984375 L 44.898438 62.378906 L 38.84375 63.5 L 36.054688 63.566406 L 33.644531 63.070312 L 31.515625 62.046875 L 29.613281 60.460938 L 27.90625 58.226562 L 27.070312 57.609375 L 25.902344 57.152344 L 24.78125 56.957031 L 23.84375 57.09375 L 23.023438 57.542969 L 24.113281 60.765625 L 25.609375 63.746094 L 26.550781 63.65625 L 27.90625 63.792969 L 30.113281 65.867188 L 32.507812 67.351562 L 35.140625 68.304688 L 38.0625 68.726562 L 49.339844 67.75 L 50.328125 67.730469 L 52.113281 68.164062 L 55.101562 69.359375 L 58.148438 70.515625 L 60.394531 70.96875 L 62.035156 70.921875 L 63.414062 70.390625 L 65.46875 69.175781 L 68.433594 66.96875 L 72.667969 63.90625 L 74.976562 62.71875 L 76.628906 58.777344 Z M 77.660156 54.710938 "/>
<path style=" stroke:none;fill-rule:nonzero;fill:rgb(75.686275%,75.686275%,75.686275%);fill-opacity:1;" d="M 78.050781 49.976562 L 77.875 46.996094 L 77.320312 43.628906 L 73.316406 44.554688 L 71.304688 45.394531 L 69.996094 46.363281 L 65.84375 51.734375 L 64.019531 53.695312 L 62.238281 55.046875 L 60.472656 55.882812 L 59.179688 56.121094 L 57.683594 56.023438 L 55.925781 55.523438 L 53.832031 54.515625 L 50.660156 52.847656 L 48.789062 52.109375 L 47.777344 51.929688 L 46.433594 52.136719 L 44.019531 52.96875 L 40.015625 54.808594 L 37.492188 55.816406 L 35.195312 56.289062 L 33.078125 56.304688 L 31.078125 55.882812 L 29.644531 54.949219 L 28.121094 53.234375 L 26.488281 50.464844 L 25.390625 48.566406 L 24.320312 47.355469 L 23.261719 46.65625 L 22.191406 46.363281 L 21.949219 49.976562 L 22.214844 53.757812 L 23.023438 57.542969 L 23.84375 57.09375 L 24.78125 56.957031 L 25.902344 57.152344 L 27.070312 57.609375 L 27.90625 58.226562 L 29.613281 60.460938 L 31.515625 62.046875 L 33.644531 63.070312 L 36.054688 63.566406 L 38.84375 63.5 L 44.898438 62.378906 L 48.410156 61.984375 L 50.953125 62.183594 L 51.851562 62.660156 L 55.492188 65.0625 L 57.023438 65.929688 L 58.46875 66.371094 L 59.863281 66.433594 L 61.253906 66.136719 L 62.746094 65.316406 L 64.125 64.058594 L 65.40625 62.28125 L 68.382812 56.664062 L 69.609375 55.519531 L 71.054688 54.828125 L 72.777344 54.566406 L 77.660156 54.710938 L 77.957031 52.285156 Z M 78.050781 49.976562 "/>
<path style=" stroke:none;fill-rule:nonzero;fill:rgb(80%,80%,80%);fill-opacity:1;" d="M 74.730469 36.839844 L 73.605469 37.734375 L 72.386719 38.453125 L 71.410156 38.585938 L 69.316406 38.34375 L 65.40625 37.378906 L 63.210938 37.011719 L 61.636719 37.25 L 60.484375 37.976562 L 59.644531 39.234375 L 58.28125 42.011719 L 56.554688 44.261719 L 54.445312 46.054688 L 51.902344 47.421875 L 48.851562 48.363281 L 45.851562 48.753906 L 43.015625 48.664062 L 40.296875 48.117188 L 37.664062 47.097656 L 35.082031 45.582031 L 31.246094 42.617188 L 29.613281 41.527344 L 27.804688 40.703125 L 26.230469 40.351562 L 24.835938 40.394531 L 23.558594 40.796875 L 22.765625 43.414062 L 22.191406 46.363281 L 23.261719 46.65625 L 24.320312 47.355469 L 25.390625 48.566406 L 26.488281 50.464844 L 28.121094 53.234375 L 29.644531 54.949219 L 31.078125 55.882812 L 33.078125 56.304688 L 35.195312 56.289062 L 37.492188 55.816406 L 40.015625 54.808594 L 44.019531 52.96875 L 46.433594 52.136719 L 47.777344 51.929688 L 48.789062 52.109375 L 50.660156 52.847656 L 53.832031 54.515625 L 55.925781 55.523438 L 57.683594 56.023438 L 59.179688 56.121094 L 60.472656 55.882812 L 62.238281 55.046875 L 64.019531 53.695312 L 65.84375 51.734375 L 69.996094 46.363281 L 71.304688 45.394531 L 73.316406 44.554688 L 77.320312 43.628906 L 76.226562 40.109375 Z M 74.730469 36.839844 "/>
<path style=" stroke:none;fill-rule:nonzero;fill:rgb(0%,0%,0%);fill-opacity:0.2;" d="M 57.886719 23.167969 L 58.726562 27.027344 L 59.007812 31.03125 L 58.773438 34.84375 L 58.085938 38.40625 L 56.960938 41.757812 L 55.386719 44.921875 L 53.347656 47.933594 L 50.804688 50.804688 L 47.9375 53.328125 L 44.925781 55.351562 L 41.753906 56.917969 L 38.394531 58.042969 L 34.816406 58.726562 L 30.980469 58.960938 L 26.980469 58.675781 L 23.121094 57.835938 L 24.339844 61.261719 L 25.933594 64.390625 L 27.90625 67.261719 L 30.28125 69.890625 L 33.082031 72.289062 L 36.167969 74.339844 L 39.382812 75.914062 L 42.742188 77.039062 L 46.277344 77.722656 L 50.023438 77.953125 L 53.859375 77.71875 L 57.4375 77.035156 L 60.796875 75.914062 L 63.96875 74.347656 L 66.980469 72.320312 L 69.847656 69.800781 L 72.390625 66.925781 L 74.429688 63.917969 L 76 60.75 L 77.132812 57.402344 L 77.816406 53.839844 L 78.050781 50.023438 L 77.820312 46.300781 L 77.132812 42.777344 L 76 39.417969 L 74.414062 36.195312 L 72.339844 33.082031 L 69.941406 30.320312 L 67.316406 27.96875 L 64.449219 26.003906 L 61.316406 24.40625 Z M 57.886719 23.167969 "/>
<path style=" stroke:none;fill-rule:nonzero;fill:rgb(100%,100%,100%);fill-opacity:0.698039;" d="M 41.722656 29.320312 L 40.933594 28.765625 L 39.625 28.6875 L 38.203125 29.058594 L 36.695312 29.957031 L 35.417969 31.167969 L 34.644531 32.398438 L 34.402344 33.683594 L 34.742188 34.59375 L 35.53125 35.152344 L 36.839844 35.230469 L 38.261719 34.859375 L 39.769531 33.960938 L 41.007812 32.753906 L 41.773438 31.519531 L 42.050781 30.230469 Z M 41.722656 29.320312 "/>
</g>
</svg>
