<?xml version="1.0" standalone="no"?><!DOCTYPE svg PUBLIC "-//W3C//DTD SVG 1.1//EN" "http://www.w3.org/Graphics/SVG/1.1/DTD/svg11.dtd"><svg height="2903" node-id="1" sillyvg="true" template-height="2903" template-width="2903" version="1.1" viewBox="0 0 2903 2903" width="2903" xmlns="http://www.w3.org/2000/svg" xmlns:xlink="http://www.w3.org/1999/xlink"><defs node-id="62"></defs><path d="M 2500.35 2282.29 C 2500.35 2367.54 2070.07 2436.64 1539.30 2436.64 C 1008.53 2436.64 578.23 2367.54 578.23 2282.29 C 578.23 2197.05 1008.53 2127.94 1539.30 2127.94 C 2070.07 2127.94 2500.35 2197.05 2500.35 2282.29 Z" fill="#d3d3d3" fill-rule="nonzero" node-id="64" stroke="#bfbfbf" stroke-linecap="butt" stroke-width="3" target-height="308.69922" target-width="1922.114" target-x="578.233" target-y="2127.942"></path><path d="M 2630.37 2177.78 C 2630.37 2288.66 2141.88 2378.55 1539.30 2378.55 C 936.72 2378.55 448.21 2288.66 448.21 2177.78 C 448.21 2066.89 936.72 1977.00 1539.30 1977.00 C 2141.88 1977.00 2630.37 2066.89 2630.37 2177.78 Z" fill="#f2f2f2" fill-rule="nonzero" node-id="66" stroke="#989ea3" stroke-linecap="butt" stroke-width="3" target-height="401.54712" target-width="2182.162" target-x="448.21" target-y="1977.002"></path><path d="M 2580.43 2177.72 C 2580.43 2267.64 2114.30 2340.53 1539.30 2340.53 C 964.30 2340.53 498.15 2267.64 498.15 2177.72 C 498.15 2087.81 964.30 2014.91 1539.30 2014.91 C 2114.30 2014.91 2580.43 2087.81 2580.43 2177.72 Z" fill="#8c9296" fill-rule="nonzero" node-id="68" stroke="#666666" stroke-linecap="butt" stroke-width="3" target-height="325.61597" target-width="2082.288" target-x="498.147" target-y="2014.915"></path><g node-id="183"><path d="M 2578.16 2174.36 C 2578.16 2182.16 2571.78 2188.53 2563.98 2188.53 L 514.53 2188.53 C 506.74 2188.53 500.36 2182.16 500.36 2174.36 L 500.36 1921.10 C 500.36 1913.31 506.74 1906.93 514.53 1906.93 L 2563.98 1906.93 C 2571.78 1906.93 2578.16 1913.31 2578.16 1921.10 L 2578.16 2174.36 Z" fill="#8c9296" fill-rule="nonzero" group-id="1" node-id="72" stroke="none" target-height="281.60596" target-width="2077.795" target-x="500.36" target-y="1906.927"></path></g><path d="M 2578.18 1958.40 C 2578.18 2040.67 2113.05 2107.37 1539.29 2107.37 C 965.53 2107.37 500.38 2040.67 500.38 1958.40 C 500.38 1876.12 965.53 1809.43 1539.29 1809.43 C 2113.05 1809.43 2578.18 1876.12 2578.18 1958.40 Z" fill="#a7c5d6" fill-rule="nonzero" node-id="75" stroke="none" target-height="297.94092" target-width="2077.795" target-x="500.382" target-y="1809.427"></path><path d="M 2578.18 1954.99 C 2578.18 1954.99 2578.17 1955.00 2578.16 1955.00 L 500.39 1955.00 C 500.39 1955.00 500.38 1954.99 500.38 1954.99 L 500.38 539.40 C 500.38 539.39 500.39 539.39 500.39 539.39 L 2578.16 539.39 C 2578.17 539.39 2578.18 539.39 2578.18 539.40 L 2578.18 1954.99 Z" fill="#a7c5d6" fill-rule="nonzero" group-id="2" node-id="79" stroke="none" target-height="1415.612" target-width="2077.795" target-x="500.382" target-y="539.387"></path><path d="M 2578.98 541.71 C 2578.98 584.34 2113.50 618.89 1539.30 618.89 C 965.10 618.89 499.60 584.34 499.60 541.71 C 499.60 499.09 965.10 464.54 1539.30 464.54 C 2113.50 464.54 2578.98 499.09 2578.98 541.71 Z" fill="#cee5ef" fill-rule="nonzero" node-id="82" stroke="none" target-height="154.34897" target-width="2079.378" target-x="499.601" target-y="464.54"></path><path d="M 351.74 552.12 L 477.75 552.12" fill="none" hidden="true" node-id="84" stroke="#707070" stroke-linecap="butt" stroke-width="4" target-height="0" target-width="126.01199" target-x="351.738" target-y="552.115" visibility="hidden"></path><path d="M 398.24 592.13 L 477.75 592.13" fill="none" hidden="true" node-id="86" stroke="#707070" stroke-linecap="butt" stroke-width="4" target-height="0" target-width="79.51401" target-x="398.236" target-y="592.132" visibility="hidden"></path><path d="M 398.24 672.16 L 477.75 672.16" fill="none" hidden="true" node-id="88" stroke="#707070" stroke-linecap="butt" stroke-width="4" target-height="0" target-width="79.51401" target-x="398.236" target-y="672.165" visibility="hidden"></path><path d="M 398.24 632.15 L 477.75 632.15" fill="none" hidden="true" node-id="90" stroke="#707070" stroke-linecap="butt" stroke-width="4" target-height="0" target-width="79.51401" target-x="398.236" target-y="632.148" visibility="hidden"></path><path d="M 398.24 712.18 L 477.75 712.18" fill="none" hidden="true" node-id="92" stroke="#707070" stroke-linecap="butt" stroke-width="4" target-height="0" target-width="79.51401" target-x="398.236" target-y="712.182" visibility="hidden"></path><path d="M 351.74 752.20 L 477.75 752.20" fill="none" hidden="true" node-id="94" stroke="#707070" stroke-linecap="butt" stroke-width="4" target-height="0" target-width="126.01199" target-x="351.738" target-y="752.199" visibility="hidden"></path><path d="M 398.24 792.22 L 477.75 792.22" fill="none" hidden="true" node-id="96" stroke="#707070" stroke-linecap="butt" stroke-width="4" target-height="0" target-width="79.51401" target-x="398.236" target-y="792.216" visibility="hidden"></path><path d="M 398.24 872.25 L 477.75 872.25" fill="none" hidden="true" node-id="98" stroke="#707070" stroke-linecap="butt" stroke-width="4" target-height="0" target-width="79.51401" target-x="398.236" target-y="872.25" visibility="hidden"></path><path d="M 398.24 832.23 L 477.75 832.23" fill="none" hidden="true" node-id="100" stroke="#707070" stroke-linecap="butt" stroke-width="4" target-height="0" target-width="79.51401" target-x="398.236" target-y="832.232" visibility="hidden"></path><path d="M 398.24 912.27 L 477.75 912.27" fill="none" hidden="true" node-id="102" stroke="#707070" stroke-linecap="butt" stroke-width="4" target-height="0" target-width="79.51401" target-x="398.236" target-y="912.267" visibility="hidden"></path><path d="M 351.74 952.28 L 477.75 952.28" fill="none" hidden="true" node-id="104" stroke="#707070" stroke-linecap="butt" stroke-width="4" target-height="0" target-width="126.01199" target-x="351.738" target-y="952.283" visibility="hidden"></path><path d="M 398.24 992.30 L 477.75 992.30" fill="none" hidden="true" node-id="106" stroke="#707070" stroke-linecap="butt" stroke-width="4" target-height="0" target-width="79.51401" target-x="398.236" target-y="992.3" visibility="hidden"></path><path d="M 398.24 1072.33 L 477.75 1072.33" fill="none" hidden="true" node-id="108" stroke="#707070" stroke-linecap="butt" stroke-width="4" target-height="0" target-width="79.51401" target-x="398.236" target-y="1072.333" visibility="hidden"></path><path d="M 398.24 1032.32 L 477.75 1032.32" fill="none" hidden="true" node-id="110" stroke="#707070" stroke-linecap="butt" stroke-width="4" target-height="0" target-width="79.51401" target-x="398.236" target-y="1032.317" visibility="hidden"></path><path d="M 398.24 1112.35 L 477.75 1112.35" fill="none" hidden="true" node-id="112" stroke="#707070" stroke-linecap="butt" stroke-width="4" target-height="0" target-width="79.51401" target-x="398.236" target-y="1112.351" visibility="hidden"></path><path d="M 351.74 1152.37 L 477.75 1152.37" fill="none" hidden="true" node-id="114" stroke="#707070" stroke-linecap="butt" stroke-width="4" target-height="0" target-width="126.01199" target-x="351.738" target-y="1152.367" visibility="hidden"></path><path d="M 398.24 1192.38 L 477.75 1192.38" fill="none" hidden="true" node-id="116" stroke="#707070" stroke-linecap="butt" stroke-width="4" target-height="0" target-width="79.51401" target-x="398.236" target-y="1192.384" visibility="hidden"></path><path d="M 398.24 1272.42 L 477.75 1272.42" fill="none" hidden="true" node-id="118" stroke="#707070" stroke-linecap="butt" stroke-width="4" target-height="0" target-width="79.51401" target-x="398.236" target-y="1272.418" visibility="hidden"></path><path d="M 398.24 1232.40 L 477.75 1232.40" fill="none" hidden="true" node-id="120" stroke="#707070" stroke-linecap="butt" stroke-width="4" target-height="0" target-width="79.51401" target-x="398.236" target-y="1232.401" visibility="hidden"></path><path d="M 398.24 1312.43 L 477.75 1312.43" fill="none" hidden="true" node-id="122" stroke="#707070" stroke-linecap="butt" stroke-width="4" target-height="0" target-width="79.51401" target-x="398.236" target-y="1312.435" visibility="hidden"></path><path d="M 351.74 1352.45 L 477.75 1352.45" fill="none" hidden="true" node-id="124" stroke="#707070" stroke-linecap="butt" stroke-width="4" target-height="0" target-width="126.01199" target-x="351.738" target-y="1352.452" visibility="hidden"></path><path d="M 398.24 1392.47 L 477.75 1392.47" fill="none" hidden="true" node-id="126" stroke="#707070" stroke-linecap="butt" stroke-width="4" target-height="0" target-width="79.51401" target-x="398.236" target-y="1392.468" visibility="hidden"></path><path d="M 398.24 1472.50 L 477.75 1472.50" fill="none" hidden="true" node-id="128" stroke="#707070" stroke-linecap="butt" stroke-width="4" target-height="0" target-width="79.51401" target-x="398.236" target-y="1472.502" visibility="hidden"></path><path d="M 398.24 1432.48 L 477.75 1432.48" fill="none" hidden="true" node-id="130" stroke="#707070" stroke-linecap="butt" stroke-width="4" target-height="0" target-width="79.51401" target-x="398.236" target-y="1432.485" visibility="hidden"></path><path d="M 398.24 1512.52 L 477.75 1512.52" fill="none" hidden="true" node-id="132" stroke="#707070" stroke-linecap="butt" stroke-width="4" target-height="0" target-width="79.51401" target-x="398.236" target-y="1512.519" visibility="hidden"></path><path d="M 351.74 1552.54 L 477.75 1552.54" fill="none" hidden="true" node-id="134" stroke="#707070" stroke-linecap="butt" stroke-width="4" target-height="0" target-width="126.01199" target-x="351.738" target-y="1552.536" visibility="hidden"></path><path d="M 398.24 1592.55 L 477.75 1592.55" fill="none" hidden="true" node-id="136" stroke="#707070" stroke-linecap="butt" stroke-width="4" target-height="0" target-width="79.51401" target-x="398.236" target-y="1592.553" visibility="hidden"></path><path d="M 398.24 1672.59 L 477.75 1672.59" fill="none" hidden="true" node-id="138" stroke="#707070" stroke-linecap="butt" stroke-width="4" target-height="0" target-width="79.51401" target-x="398.236" target-y="1672.586" visibility="hidden"></path><path d="M 398.24 1632.57 L 477.75 1632.57" fill="none" hidden="true" node-id="140" stroke="#707070" stroke-linecap="butt" stroke-width="4" target-height="0" target-width="79.51401" target-x="398.236" target-y="1632.569" visibility="hidden"></path><path d="M 398.24 1712.60 L 477.75 1712.60" fill="none" hidden="true" node-id="142" stroke="#707070" stroke-linecap="butt" stroke-width="4" target-height="0" target-width="79.51401" target-x="398.236" target-y="1712.603" visibility="hidden"></path><path d="M 351.74 1752.62 L 477.75 1752.62" fill="none" hidden="true" node-id="144" stroke="#707070" stroke-linecap="butt" stroke-width="4" target-height="0" target-width="126.01199" target-x="351.738" target-y="1752.62" visibility="hidden"></path><path d="M 351.74 1952.70 L 477.75 1952.70" fill="none" hidden="true" node-id="146" stroke="#707070" stroke-linecap="butt" stroke-width="4" target-height="0" target-width="126.01199" target-x="351.738" target-y="1952.704" visibility="hidden"></path><path d="M 398.24 1792.64 L 477.75 1792.64" fill="none" hidden="true" node-id="148" stroke="#707070" stroke-linecap="butt" stroke-width="4" target-height="0" target-width="79.51401" target-x="398.236" target-y="1792.637" visibility="hidden"></path><path d="M 398.24 1872.67 L 477.75 1872.67" fill="none" hidden="true" node-id="150" stroke="#707070" stroke-linecap="butt" stroke-width="4" target-height="0" target-width="79.51401" target-x="398.236" target-y="1872.67" visibility="hidden"></path><path d="M 398.24 1832.65 L 477.75 1832.65" fill="none" hidden="true" node-id="152" stroke="#707070" stroke-linecap="butt" stroke-width="4" target-height="0" target-width="79.51401" target-x="398.236" target-y="1832.654" visibility="hidden"></path><path d="M 398.24 1912.69 L 477.75 1912.69" fill="none" hidden="true" node-id="154" stroke="#707070" stroke-linecap="butt" stroke-width="4" target-height="0" target-width="79.51401" target-x="398.236" target-y="1912.688" visibility="hidden"></path><path d="M 275.55 534.71 L 275.55 526.26 L 321.88 526.26 L 321.88 533.10 C 317.32 537.95 312.81 544.39 308.33 552.43 C 303.86 560.47 300.40 568.74 297.96 577.24 C 296.20 583.23 295.08 589.78 294.59 596.91 L 285.56 596.91 C 285.65 591.28 286.76 584.48 288.88 576.50 C 290.99 568.53 294.03 560.84 297.98 553.43 C 301.94 546.03 306.14 539.79 310.60 534.71 L 275.55 534.71 Z" fill="#848484" fill-rule="nonzero" group-id="3" hidden="true" node-id="158" stroke="none" target-height="70.65503" target-width="46.337982" target-x="275.545" target-y="526.259" visibility="hidden"></path><path d="M 320.56 741.86 L 311.82 742.54 C 311.04 739.09 309.94 736.59 308.50 735.02 C 306.13 732.52 303.20 731.26 299.71 731.26 C 296.92 731.26 294.46 732.04 292.34 733.61 C 289.57 735.63 287.39 738.57 285.80 742.45 C 284.20 746.32 283.37 751.84 283.31 759.00 C 285.43 755.78 288.01 753.38 291.07 751.82 C 294.13 750.26 297.34 749.48 300.69 749.48 C 306.55 749.48 311.54 751.63 315.66 755.95 C 319.78 760.26 321.83 765.84 321.83 772.67 C 321.83 777.16 320.87 781.34 318.93 785.20 C 316.99 789.05 314.33 792.01 310.95 794.06 C 307.56 796.11 303.72 797.13 299.42 797.13 C 292.10 797.13 286.13 794.44 281.50 789.05 C 276.88 783.66 274.57 774.79 274.57 762.42 C 274.57 748.58 277.12 738.52 282.24 732.24 C 286.69 726.77 292.70 724.04 300.25 724.04 C 305.88 724.04 310.50 725.62 314.10 728.77 C 317.69 731.93 319.85 736.29 320.56 741.86 Z M 284.68 772.72 C 284.68 775.75 285.32 778.64 286.61 781.41 C 287.89 784.18 289.69 786.29 292.00 787.73 C 294.31 789.18 296.74 789.91 299.28 789.91 C 302.99 789.91 306.18 788.41 308.85 785.41 C 311.51 782.42 312.85 778.35 312.85 773.21 C 312.85 768.26 311.53 764.36 308.89 761.51 C 306.26 758.67 302.94 757.24 298.93 757.24 C 294.96 757.24 291.59 758.67 288.83 761.51 C 286.06 764.36 284.68 768.10 284.68 772.72 Z" fill="#848484" fill-rule="nonzero" group-id="3" hidden="true" node-id="160" stroke="none" target-height="73.09601" target-width="47.264984" target-x="274.57" target-y="724.037" visibility="hidden"></path><path d="M 274.96 976.16 L 284.19 975.38 C 284.87 979.87 286.46 983.25 288.95 985.51 C 291.44 987.78 294.44 988.91 297.96 988.91 C 302.19 988.91 305.77 987.31 308.70 984.12 C 311.63 980.93 313.10 976.70 313.10 971.43 C 313.10 966.41 311.69 962.46 308.87 959.56 C 306.06 956.67 302.37 955.22 297.81 955.22 C 294.98 955.22 292.42 955.86 290.14 957.15 C 287.87 958.43 286.07 960.10 284.77 962.15 L 276.52 961.08 L 283.46 924.31 L 319.05 924.31 L 319.05 932.71 L 290.49 932.71 L 286.63 951.95 C 290.93 948.95 295.44 947.45 300.16 947.45 C 306.41 947.45 311.68 949.62 315.98 953.95 C 320.27 958.28 322.42 963.84 322.42 970.65 C 322.42 977.12 320.53 982.72 316.76 987.44 C 312.17 993.24 305.90 996.13 297.96 996.13 C 291.45 996.13 286.13 994.31 282.02 990.66 C 277.90 987.02 275.55 982.19 274.96 976.16 Z" fill="#848484" fill-rule="nonzero" group-id="3" hidden="true" node-id="162" stroke="none" target-height="71.82495" target-width="47.461975" target-x="274.959" target-y="924.309" visibility="hidden"></path><path d="M 303.13 1193.91 L 303.13 1176.77 L 272.08 1176.77 L 272.08 1168.72 L 304.74 1122.33 L 311.92 1122.33 L 311.92 1168.72 L 321.59 1168.72 L 321.59 1176.77 L 311.92 1176.77 L 311.92 1193.91 L 303.13 1193.91 Z M 303.13 1168.72 L 303.13 1136.44 L 280.72 1168.72 L 303.13 1168.72 Z" fill="#848484" fill-rule="nonzero" group-id="3" hidden="true" node-id="164" stroke="none" target-height="71.58301" target-width="49.511993" target-x="272.078" target-y="1122.33" visibility="hidden"></path><path d="M 275.01 1374.02 L 283.80 1372.85 C 284.81 1377.83 286.52 1381.41 288.95 1383.61 C 291.37 1385.81 294.33 1386.91 297.81 1386.91 C 301.94 1386.91 305.44 1385.48 308.28 1382.61 C 311.13 1379.75 312.56 1376.20 312.56 1371.97 C 312.56 1367.93 311.24 1364.60 308.60 1361.98 C 305.96 1359.36 302.61 1358.05 298.54 1358.05 C 296.88 1358.05 294.81 1358.38 292.34 1359.03 L 293.32 1351.31 C 293.90 1351.38 294.38 1351.41 294.73 1351.41 C 298.48 1351.41 301.85 1350.43 304.84 1348.48 C 307.84 1346.53 309.33 1343.52 309.33 1339.45 C 309.33 1336.22 308.24 1333.56 306.06 1331.44 C 303.88 1329.32 301.06 1328.27 297.62 1328.27 C 294.20 1328.27 291.35 1329.34 289.07 1331.49 C 286.79 1333.64 285.33 1336.86 284.68 1341.16 L 275.89 1339.59 C 276.96 1333.70 279.40 1329.14 283.21 1325.90 C 287.02 1322.66 291.75 1321.04 297.42 1321.04 C 301.32 1321.04 304.92 1321.88 308.21 1323.55 C 311.50 1325.23 314.01 1327.52 315.75 1330.41 C 317.50 1333.31 318.37 1336.39 318.37 1339.64 C 318.37 1342.74 317.54 1345.55 315.88 1348.09 C 314.22 1350.63 311.76 1352.65 308.50 1354.14 C 312.73 1355.12 316.02 1357.15 318.37 1360.22 C 320.71 1363.30 321.88 1367.15 321.88 1371.77 C 321.88 1378.02 319.60 1383.32 315.05 1387.67 C 310.49 1392.01 304.73 1394.18 297.76 1394.18 C 291.48 1394.18 286.26 1392.31 282.11 1388.57 C 277.96 1384.82 275.59 1379.97 275.01 1374.02 Z" fill="#848484" fill-rule="nonzero" group-id="3" hidden="true" node-id="166" stroke="none" target-height="73.14612" target-width="46.873993" target-x="275.008" target-y="1321.039" visibility="hidden"></path><path d="M 321.15 1583.47 L 321.15 1591.91 L 273.84 1591.91 C 273.77 1589.80 274.11 1587.76 274.86 1585.81 C 276.06 1582.59 277.99 1579.41 280.65 1576.29 C 283.30 1573.16 287.13 1569.55 292.15 1565.45 C 299.93 1559.07 305.18 1554.01 307.92 1550.29 C 310.65 1546.56 312.02 1543.04 312.02 1539.72 C 312.02 1536.23 310.77 1533.30 308.28 1530.90 C 305.79 1528.51 302.55 1527.31 298.54 1527.31 C 294.31 1527.31 290.93 1528.58 288.39 1531.12 C 285.85 1533.66 284.56 1537.18 284.53 1541.67 L 275.50 1540.74 C 276.12 1534.00 278.44 1528.87 282.48 1525.34 C 286.51 1521.81 291.94 1520.04 298.74 1520.04 C 305.61 1520.04 311.04 1521.94 315.05 1525.75 C 319.05 1529.56 321.05 1534.28 321.05 1539.91 C 321.05 1542.78 320.47 1545.59 319.30 1548.36 C 318.12 1551.13 316.18 1554.04 313.46 1557.10 C 310.74 1560.16 306.23 1564.36 299.91 1569.70 C 294.64 1574.12 291.25 1577.13 289.75 1578.71 C 288.26 1580.29 287.02 1581.87 286.04 1583.47 L 321.15 1583.47 Z" fill="#848484" fill-rule="nonzero" group-id="3" hidden="true" node-id="168" stroke="none" target-height="71.87402" target-width="47.380005" target-x="273.77" target-y="1520.039" visibility="hidden"></path><path d="M 308.06 1790.91 L 299.27 1790.91 L 299.27 1734.91 C 297.16 1736.93 294.38 1738.94 290.95 1740.96 C 287.51 1742.98 284.43 1744.49 281.70 1745.50 L 281.70 1737.01 C 286.61 1734.70 290.91 1731.90 294.59 1728.61 C 298.27 1725.32 300.87 1722.13 302.40 1719.04 L 308.06 1719.04 L 308.06 1790.91 Z" fill="#848484" fill-rule="nonzero" group-id="3" hidden="true" node-id="170" stroke="none" target-height="71.87402" target-width="26.368011" target-x="281.697" target-y="1719.039" visibility="hidden"></path><path d="M 274.96 1954.61 C 274.96 1946.15 275.83 1939.34 277.57 1934.17 C 279.31 1929.02 281.90 1925.04 285.33 1922.24 C 288.77 1919.44 293.09 1918.04 298.30 1918.04 C 302.14 1918.04 305.51 1918.81 308.41 1920.36 C 311.30 1921.90 313.70 1924.13 315.58 1927.05 C 317.47 1929.96 318.95 1933.51 320.03 1937.69 C 321.10 1941.87 321.64 1947.51 321.64 1954.61 C 321.64 1963.01 320.77 1969.79 319.05 1974.95 C 317.32 1980.11 314.75 1984.09 311.31 1986.91 C 307.88 1989.73 303.54 1991.13 298.30 1991.13 C 291.40 1991.13 285.98 1988.66 282.04 1983.71 C 277.32 1977.76 274.96 1968.06 274.96 1954.61 Z M 283.99 1954.61 C 283.99 1966.36 285.37 1974.18 288.12 1978.07 C 290.87 1981.96 294.26 1983.91 298.30 1983.91 C 302.33 1983.91 305.73 1981.95 308.48 1978.05 C 311.23 1974.14 312.61 1966.33 312.61 1954.61 C 312.61 1942.83 311.23 1935.00 308.48 1931.12 C 305.73 1927.25 302.30 1925.31 298.20 1925.31 C 294.17 1925.31 290.94 1927.02 288.53 1930.44 C 285.51 1934.80 283.99 1942.86 283.99 1954.61 Z" fill="#848484" fill-rule="nonzero" group-id="3" hidden="true" node-id="172" stroke="none" target-height="73.09607" target-width="46.678986" target-x="274.959" target-y="1918.038" visibility="hidden"></path><path d="M 1442.09 1185.04 C 1413.31 1220.55 1385.74 1257.03 1359.42 1294.40 C 1338.08 1324.84 1318.92 1354.30 1302.52 1382.26 C 1263.53 1448.70 1242.02 1503.52 1242.02 1540.55 C 1242.02 1665.56 1340.61 1766.65 1461.92 1766.65 C 1583.23 1766.65 1681.82 1665.56 1681.82 1540.55 C 1681.82 1503.52 1660.31 1448.70 1621.33 1382.26 C 1604.92 1354.30 1585.76 1324.84 1564.41 1294.40 C 1538.10 1257.03 1510.53 1220.55 1481.75 1185.04 C 1475.20 1176.94 1468.58 1168.88 1461.91 1160.87 C 1455.72 1168.30 1449.08 1176.38 1442.09 1185.04 Z M 1195.26 1540.55 C 1195.26 1492.94 1219.29 1431.71 1262.19 1358.59 C 1279.28 1329.46 1299.11 1298.96 1321.14 1267.56 C 1348.07 1229.32 1376.28 1191.99 1405.73 1155.65 C 1417.44 1141.15 1429.35 1126.82 1441.46 1112.65 L 1444.33 1109.36 L 1461.92 1089.25 L 1479.51 1109.36 L 1482.38 1112.65 C 1484.64 1115.30 1487.28 1118.38 1490.23 1121.88 C 1498.65 1131.84 1508.03 1143.17 1518.11 1155.65 C 1547.56 1191.99 1575.78 1229.32 1602.70 1267.56 C 1624.73 1298.96 1644.55 1329.46 1661.66 1358.59 C 1704.55 1431.71 1728.58 1492.94 1728.58 1540.55 C 1728.58 1691.12 1609.32 1813.42 1461.92 1813.42 C 1314.51 1813.42 1195.26 1691.12 1195.26 1540.55 Z" fill="#ffffff" fill-rule="nonzero" group-id="4" node-id="177" stroke="none" target-height="724.1709" target-width="533.31604" target-x="1195.262" target-y="1089.248"></path><path d="M 1461.92 1732.19 C 1359.17 1732.19 1275.88 1648.60 1275.88 1545.49 C 1275.88 1442.39 1372.57 1494.60 1461.92 1545.49 C 1551.64 1596.60 1647.96 1442.39 1647.96 1545.49 C 1647.96 1648.60 1564.66 1732.19 1461.91 1732.19 L 1461.92 1732.19 Z" fill="#ffffff" fill-rule="nonzero" group-id="4" node-id="179" stroke="none" target-height="289.79504" target-width="372.078" target-x="1275.881" target-y="1442.392"></path><path d="M 1602.34 1207.64 C 1602.34 1190.64 1613.60 1170.43 1632.41 1147.16 C 1641.30 1136.21 1650.81 1125.78 1660.89 1115.92 L 1668.97 1108.18 L 1677.06 1115.92 L 1679.60 1118.41 C 1688.74 1127.53 1697.40 1137.13 1705.54 1147.16 C 1711.65 1154.62 1717.28 1162.47 1722.39 1170.65 C 1730.85 1184.39 1735.60 1196.64 1735.60 1207.65 C 1735.60 1244.74 1705.80 1274.87 1668.98 1274.87 C 1632.16 1274.87 1602.34 1244.74 1602.34 1207.64 Z M 1650.60 1161.86 C 1635.07 1181.05 1625.72 1197.84 1625.72 1207.64 C 1625.72 1231.89 1645.12 1251.48 1668.98 1251.48 C 1692.83 1251.48 1712.22 1231.89 1712.22 1207.64 C 1712.22 1201.93 1708.87 1193.28 1702.47 1182.88 C 1697.89 1175.56 1692.84 1168.54 1687.36 1161.85 C 1681.55 1154.70 1675.45 1147.79 1669.09 1141.12 C 1662.59 1147.73 1656.42 1154.64 1650.60 1161.85 L 1650.60 1161.86 Z M 1162.83 1314.26 C 1162.83 1301.53 1170.79 1287.25 1184.11 1270.77 C 1190.25 1263.20 1196.82 1256.00 1203.79 1249.18 L 1211.87 1241.43 L 1219.96 1249.18 C 1226.93 1255.99 1233.50 1263.20 1239.64 1270.77 C 1244.17 1276.37 1248.13 1281.84 1251.39 1287.13 C 1257.47 1297.02 1260.93 1305.93 1260.93 1314.26 C 1260.93 1341.53 1239.00 1363.70 1211.89 1363.70 C 1184.76 1363.70 1162.83 1341.53 1162.83 1314.26 Z M 1202.29 1285.47 C 1192.27 1297.88 1186.21 1308.73 1186.21 1314.26 C 1186.21 1328.67 1197.73 1340.33 1211.88 1340.33 C 1226.03 1340.33 1237.56 1328.67 1237.56 1314.26 C 1237.56 1311.22 1235.48 1305.90 1231.47 1299.37 C 1228.43 1294.53 1225.09 1289.88 1221.47 1285.46 C 1218.39 1281.67 1215.19 1277.98 1211.87 1274.40 C 1208.56 1277.99 1205.36 1281.68 1202.29 1285.47 Z" fill="#ffffff" fill-rule="nonzero" group-id="4" node-id="181" stroke="none" target-height="255.51904" target-width="572.772" target-x="1162.831" target-y="1108.178"></path></svg>