<?xml version="1.0" standalone="no"?>
<!DOCTYPE svg PUBLIC "-//W3C//DTD SVG 20010904//EN"
 "http://www.w3.org/TR/2001/REC-SVG-20010904/DTD/svg10.dtd">
<svg version="1.0" xmlns="http://www.w3.org/2000/svg"
 width="56.000000pt" height="56.000000pt" viewBox="0 0 600.000000 400.000000"
 preserveAspectRatio="xMidYMid meet">

<g transform="translate(0.000000,400.000000) scale(0.100000,-0.100000)"
fill="#000000" stroke="none">
<path d="M2495 3371 c-16 -10 -39 -28 -50 -41 -19 -21 -20 -36 -20 -490 l0
-468 25 -27 c50 -54 59 -55 340 -55 l260 0 0 -165 0 -165 -492 0 c-649 -1
-610 16 -618 -260 l-5 -165 -152 -5 c-168 -6 -188 -12 -227 -80 -17 -29 -19
-54 -19 -276 -1 -274 4 -299 70 -344 28 -19 53 -26 116 -30 l81 -5 1 -45 c1
-62 -3 -70 -36 -70 -39 0 -56 -32 -34 -66 l15 -24 233 0 c245 0 257 2 257 46
0 26 -16 41 -50 46 -23 3 -25 8 -28 59 l-3 57 85 3 c91 4 118 17 160 73 20 26
21 43 24 281 3 241 2 256 -18 295 -36 71 -63 80 -232 80 l-148 0 0 148 c0 132
2 151 18 165 17 15 67 17 510 17 l492 0 0 -165 0 -165 -146 0 c-133 0 -150 -2
-182 -22 -65 -40 -72 -72 -72 -338 0 -208 3 -240 19 -276 30 -65 69 -87 168
-92 l83 -5 0 -58 c0 -58 -1 -59 -28 -59 -33 0 -52 -16 -52 -45 0 -43 12 -45
256 -45 198 0 235 2 248 16 30 30 10 74 -34 74 -30 0 -30 0 -30 60 l0 60 68 0
c85 0 147 29 174 80 16 31 18 62 18 288 0 273 -2 282 -55 332 -25 24 -33 25
-183 30 l-157 5 -3 163 -2 162 499 0 500 0 15 -22 c13 -18 16 -52 16 -165 l0
-143 -149 0 c-137 0 -151 -2 -182 -23 -65 -43 -69 -63 -69 -340 0 -280 4 -299
68 -339 27 -17 58 -24 117 -28 l80 -5 0 -55 c0 -55 0 -55 -33 -58 -43 -4 -59
-34 -37 -68 l15 -24 233 0 c245 0 257 2 257 45 0 27 -18 45 -47 45 -24 0 -39
23 -37 55 1 11 2 30 3 41 1 20 7 22 84 25 74 4 88 7 121 33 63 47 66 65 66
338 0 233 -1 245 -23 283 -36 65 -69 75 -234 75 l-143 0 0 159 c0 147 -2 160
-22 191 -13 18 -36 43 -51 54 -28 20 -41 21 -535 26 l-507 5 0 160 0 160 270
5 c263 5 271 6 303 28 63 46 62 36 62 525 l0 444 -23 34 c-47 71 -27 69 -662
69 -537 0 -572 -1 -600 -19z m1179 -90 c14 -15 16 -35 14 -102 l-3 -84 -590 0
-590 0 -3 76 c-2 64 0 79 18 102 l21 27 558 0 c533 0 559 -1 575 -19z m14
-568 c2 -282 2 -293 -18 -313 -20 -20 -32 -20 -568 -20 -479 0 -550 2 -570 16
-22 15 -22 16 -22 315 l0 299 588 -2 587 -3 3 -292z m-1376 -1290 c16 -15 18
-36 18 -254 0 -203 -2 -240 -16 -253 -13 -14 -58 -16 -334 -16 -318 0 -319 0
-334 22 -13 19 -16 60 -16 250 0 215 1 229 20 248 19 19 33 20 332 20 276 0
314 -2 330 -17z m1118 -3 c19 -19 20 -33 20 -248 0 -190 -3 -231 -16 -250 -15
-22 -16 -22 -334 -22 -276 0 -321 2 -334 16 -14 13 -16 50 -16 254 0 235 0
239 22 254 19 14 68 16 330 16 295 0 309 -1 328 -20z m1108 4 c22 -15 22 -19
22 -254 0 -204 -2 -241 -16 -254 -13 -14 -58 -16 -334 -16 -318 0 -319 0 -334
22 -13 19 -16 60 -16 250 0 215 1 229 20 248 19 19 33 20 328 20 262 0 311 -2
330 -16z m-2470 -681 l-3 -58 -82 -3 -83 -3 0 61 0 60 85 0 86 0 -3 -57z
m1110 0 l-3 -58 -80 0 -80 0 -3 58 -3 57 86 0 86 0 -3 -57z m1120 0 l-3 -58
-80 0 -80 0 -3 58 -3 57 86 0 86 0 -3 -57z"/>
<path d="M3007 2812 c-53 -19 -117 -66 -117 -86 0 -24 32 -28 54 -7 45 41 99
61 164 61 69 0 118 -16 164 -55 34 -29 46 -31 55 -9 9 24 -44 71 -104 94 -66
24 -151 25 -216 2z"/>
<path d="M3024 2706 c-57 -27 -67 -37 -58 -60 8 -21 19 -20 54 6 18 13 49 23
82 26 45 3 59 0 92 -23 39 -26 66 -27 66 -2 0 21 -31 45 -79 62 -60 21 -98 19
-157 -9z"/>
<path d="M3075 2621 c-32 -13 -50 -40 -37 -53 8 -8 19 -7 41 2 25 10 37 10 62
0 26 -11 32 -11 40 1 19 31 -61 68 -106 50z"/>
</g>
</svg>
