<?xml version="1.0" standalone="no"?>
<!DOCTYPE svg PUBLIC "-//W3C//DTD SVG 20010904//EN"
 "http://www.w3.org/TR/2001/REC-SVG-20010904/DTD/svg10.dtd">
<svg version="1.0" xmlns="http://www.w3.org/2000/svg"
 width="56.000000pt" height="56.000000pt" viewBox="0 0 600.000000 400.000000"
 preserveAspectRatio="xMidYMid meet">

<g transform="translate(0.000000,400.000000) scale(0.100000,-0.100000)"
fill="#000000" stroke="none">
<path d="M2432 3278 c-54 -18 -99 -68 -160 -178 -32 -58 -116 -208 -187 -334
-123 -220 -128 -231 -128 -287 0 -74 34 -134 93 -168 34 -19 41 -27 35 -45
-35 -118 -8 -176 113 -243 126 -68 277 -155 285 -162 4 -4 -32 -77 -82 -162
l-89 -154 -166 -3 -166 -2 0 169 c0 135 -3 171 -14 181 -18 14 -261 80 -298
80 -17 0 -31 -7 -38 -19 -6 -13 -10 -227 -10 -626 0 -399 4 -613 10 -626 7
-12 21 -19 39 -19 23 0 57 27 170 130 l140 131 3 147 3 147 243 2 c162 1 248
6 257 13 8 6 48 71 90 143 152 264 182 312 191 310 5 -1 72 -37 149 -81 339
-191 583 -327 620 -346 54 -27 146 -27 201 2 51 26 45 20 419 475 255 311 310
384 310 409 0 32 6 29 -715 437 -129 74 -347 198 -485 276 -751 427 -731 416
-779 414 -12 -1 -36 -6 -54 -11z m715 -454 c1062 -603 1157 -657 1176 -669 15
-11 -11 -46 -242 -328 -142 -173 -268 -328 -280 -342 -19 -26 -22 -26 -44 -12
-13 8 -156 89 -318 180 -162 90 -348 195 -414 232 -66 37 -221 124 -345 193
-124 68 -270 150 -325 182 -55 31 -140 78 -188 104 -96 52 -122 84 -107 135 4
14 73 144 153 288 185 330 205 364 225 380 44 33 65 22 709 -343z m-811 -672
c77 -43 243 -136 369 -207 127 -70 325 -181 440 -246 116 -64 286 -160 380
-212 93 -52 171 -99 173 -105 4 -13 -33 -25 -71 -24 -27 1 -98 36 -272 137
-49 29 -115 65 -145 82 -88 48 -897 501 -967 541 -35 20 -66 44 -69 54 -6 21
4 58 15 58 5 0 71 -35 147 -78z m-521 -320 l60 -17 3 -412 2 -411 -71 -66
c-39 -36 -75 -66 -80 -66 -5 0 -9 217 -9 495 0 465 1 495 18 494 9 0 44 -8 77
-17z m843 -77 c1 -1 -51 -94 -115 -206 l-118 -204 -213 -3 -212 -2 0 45 0 45
178 0 c158 0 181 2 195 18 13 14 90 143 185 310 l24 42 36 -22 c21 -12 38 -22
40 -23z"/>
<path d="M4312 1853 c-364 -434 -422 -506 -422 -526 0 -36 15 -49 49 -45 28 3
62 39 291 313 158 188 260 317 260 330 0 29 -19 45 -51 45 -23 0 -45 -20 -127
-117z"/>
</g>
</svg>
